<?xml version="1.0" encoding="UTF-8"?>
<!DOCTYPE svg PUBLIC "-//W3C//DTD SVG 1.1//EN" "http://www.w3.org/Graphics/SVG/1.1/DTD/svg11.dtd">
<!-- Creator: CorelDRAW -->
<svg xmlns="http://www.w3.org/2000/svg" xml:space="preserve" width="31.4212in" height="13.5975in" version="1.1" style="shape-rendering:geometricPrecision; text-rendering:geometricPrecision; image-rendering:optimizeQuality; fill-rule:evenodd; clip-rule:evenodd"
viewBox="0 0 90756.54 39274.74"
 xmlns:xlink="http://www.w3.org/1999/xlink"
 xmlns:xodm="http://www.corel.com/coreldraw/odm/2003">
 <defs>
  <style type="text/css">
   <![CDATA[
    .fil3 {fill:#00BAE9}
    .fil1 {fill:#00FF87}
    .fil2 {fill:#5FEFFF}
    .fil7 {fill:#6699FF}
    .fil6 {fill:#6699FF}
    .fil8 {fill:#89E0FE}
    .fil5 {fill:#9999FF}
    .fil9 {fill:#C8F8FC}
    .fil4 {fill:#CCCCFF}
    .fil0 {fill:white}
   ]]>
  </style>
   <clipPath id="id0">
    <rect width="90756.54" height="39274.74"/>
   </clipPath>
 </defs>
 <g id="Layer_x0020_1">
  <metadata id="CorelCorpID_0Corel-Layer"/>
  <g style="clip-path:url(#id0)">
   <image x="-0" y="0" width="90756.54" height="39274.74" xlink:href="background landing 2 service..._Images\background landing 2 service..._ImgID1.png"/>
  </g>
  <path class="fil0" d="M22654.09 1312.61c383.54,-11.69 810.61,-9.72 1167.83,20.74 351.64,30.01 808.31,7.61 1150.97,49.86 311.13,38.38 761.92,46 1115.01,68.4 1488.46,94.42 3756.13,346.53 5175.08,590.12 2181.77,374.55 3539.2,611.95 5670.06,1050.12l1830.68 384.68c602.21,108.17 1202.88,251.54 1835.2,388.04 3871.8,835.82 7834.57,1717.5 11616.21,2688.45 1319.98,338.92 3148.57,780.58 4405.88,1051.34 316.55,68.17 601.86,139.02 890.27,206.43 302.83,70.78 611.97,143.82 891.72,200.63 2709.38,550.25 4847.74,983.17 7730.51,1297.42l1618.07 153.22c198.16,11.69 289.21,41.11 495.78,46.91 291.03,8.16 872.24,38.6 1147.99,64.65 945.75,89.38 2609.08,79.77 3572.91,71.61 1509.74,-12.78 3176,-55.83 4563.3,-210.42 363.9,-40.55 741.7,-41.55 1094.29,-88.54 316.11,-42.11 779.96,-61.91 1072.99,-95.46 1530.13,-175.21 2510.92,-239.9 4054.49,-526.97l1817.47 -356.7c-419.6,213.48 -2275.49,709.26 -2856.66,831.05 -1062.07,222.54 -2187.35,401.21 -3342.82,532.91 -1122.86,127.98 -2380.75,294.46 -3592.37,355.42 -1276.59,64.24 -2546.55,211.35 -3913.71,172.78l-1.64 -1.24c-71.6,67.57 12.98,20.51 -124.56,45.52 -20.43,3.71 -146.52,10.37 -174.05,11.41 -101.58,3.83 -219.62,7.4 -321.07,8.06 -209.32,1.36 -424.34,-12.04 -635.32,-14.49 -1252.56,-14.46 -2524.02,19.38 -3857.15,-0.63 -832.08,-12.47 -1634.86,-64.1 -2449.56,-82.38 -830.58,-18.63 -1558.57,-112.01 -2361.11,-136.21 -744.31,-22.42 -1547.36,-151.08 -2313.87,-179.49 -793.79,-29.42 -1275.25,-145.2 -1640.65,-175.5 -214.21,-17.76 -393.66,-24.28 -587.2,-43.91 -230.04,-23.31 -313.45,-42.79 -570.47,-65.85 -56.76,-5.09 -198.64,-16.52 -277.38,-27.16l-4574.22 -567.1c-294.55,-55.35 -740.51,-111.24 -1028.95,-143.44 -1149.43,-128.34 -2263.98,-312.06 -3236.38,-417.42l-2189.75 -251.92c-322.28,-51.7 -729.27,-60.77 -1131.7,-97.5 -727.49,-66.41 -1500.68,-165.17 -2276.64,-200.37 -860.5,-39.04 -565.13,-50.87 -826.82,-86.9 -81.35,-11.22 -217.99,-7.97 -309.15,-12.35l-1110.86 -90.73c-393.9,-40.08 -887.99,-14.48 -1285.61,-41.38l-3546.71 -186.3c-1606.59,-82.4 -3245.16,-109.26 -4859.31,-191.33 -908.7,-46.19 -6515.96,-101.3 -7031.11,-52.62 -877.08,82.89 -2272.67,103.21 -2939.78,162.6l-1690.13 156.21c-812.69,28.61 -436.17,91.77 -1134.27,116.98 -700.46,25.29 -3962.67,526.88 -4751.52,676.54l-2027.33 353.85c-198.92,34.58 -224.9,69.45 -455.27,104.16l-1484.34 291.39c-304.65,78.37 -632.52,123.54 -959.67,194.91 -321.67,70.16 -659.58,138.64 -970.91,213.77 -725.42,175.04 -1292.99,261.18 -1924.35,413.55 -193.48,46.69 -241.73,69.59 -457.46,105.89 -687.19,115.62 -789.58,179.34 -1461.31,307l-2628.93 544.65c-88.18,23.73 -119.57,29.87 -258.74,34.58l0 22850.73 1423.66 -394.17c3857.28,-1005.72 6461.43,-1583.7 10667.45,-2090.59 611.08,-73.65 1171.04,-93.39 1782.42,-161.75 962.92,-107.67 2637.58,-160.7 3655.16,-207.54 2046.42,-94.19 3829.51,-34.65 5840.65,52.49l3450.93 327.71c541.41,81.59 1142.28,137.68 1687.71,218.32 1504.95,222.57 3276.48,503.43 4711.89,805.17l6018.93 1250.39c290.12,65.78 11356.69,2543.46 11745.24,2678.58 331.14,19.8 1804.9,319.62 2380.29,398.82 492.61,67.83 907.39,164.26 1476.26,238.72l2965.31 420.34c332.94,43.47 654.95,87.19 1023.5,126.82 766.3,82.39 1376.49,184.03 2007.78,240.83 727.53,65.44 1453.97,125.45 2158.1,186.1 1129.2,97.23 3479.55,136.16 4666.49,125.02l-135.98 -48.8c-1706.55,-39.15 -3388.33,-144.08 -5051.02,-313.79l-2532.49 -318.35c-984.97,-133.07 -1919.9,-316.39 -2875.28,-470.14 -343.12,-55.22 -629.55,-123.76 -926.88,-182.18l-4565.01 -922.19c-613.44,-123.86 -1178.18,-271.28 -1829.21,-388.44 -297.06,-53.47 -611.3,-141.59 -897.14,-200.2l-11498.28 -2687.68c-1978.93,-525.8 -7156.04,-1668.27 -9048.89,-1963.68 -706.12,-110.2 -1255.31,-197.79 -1923.14,-299.6 -2885,-439.8 -5757.13,-598.57 -8771.69,-592.57 -1377.78,2.74 -2181.03,76 -3448.68,134.38 -221.92,10.22 -353.69,27.92 -546.61,38.75 -1629.56,91.37 -5181.6,454.84 -6709.05,738.37 -293.26,54.44 -642.48,124.28 -926.52,182.83 -286.28,59.01 -616.59,154.1 -910.73,185.32 8.61,-5.55 20.21,-12.75 26.52,-16.25 6.21,-3.45 18.73,-11.69 26.48,-15.78 7.57,-3.99 18.37,-10.51 26.94,-14.69l559.62 -191.85c2764.94,-865.8 5425.68,-1162.16 8460.45,-1431.55 1127.55,-100.09 2387.42,-177.45 3577.94,-189.39 230.39,-119.24 924.08,-58.02 1198.65,-77.2 395.12,-27.6 891.26,-13.51 1296.94,-11.37 1598.96,8.39 5266.53,-23.88 6719.17,127 91.8,9.54 218.45,9.55 314.25,11.26 231.11,4.13 411.17,17.86 593.22,29.43 387.27,24.57 760.51,56.45 1152.89,91.19l2317.79 195.2c182.64,26.17 380.79,44.54 574.47,61.13l3653.42 389.85c201.62,51.95 1804.56,206.08 2441.4,311.57 517.69,85.76 1155.16,122.32 1689.09,201.62 138.96,20.64 460.68,29.34 559.36,51.46 293.58,65.8 -28.14,36.16 517.87,97.86 185.13,20.92 347.15,44.66 517.95,70.08l4406.12 531.54c715.4,42.96 1166.07,115.33 1733.41,163.99l2904.16 225.85c779.42,56.96 1656.54,101.72 2400.33,141.34 827.71,44.09 1596.97,62.94 2444.94,105.27 3257.31,162.64 6576.67,295.49 10029.98,293.63 874.92,-0.47 1770.54,-26.76 2584.71,-36.83 1132.5,-14.03 3608.11,-203.36 4689.54,-343.6l1666.57 -184.48c195.94,-38.5 208.7,-66.47 464.54,-89.57 780.08,-70.47 1424.57,-180.71 2180.16,-299.97l3085.43 -537.51c355.95,-60.1 637.44,-142.51 973.5,-202.6 1010.86,-180.73 2000.17,-409.9 2974.64,-608.32l4916.43 -1045.78c343.15,-71.06 1840.84,-368.03 2012.44,-371.7l0 -22987.72 -95.31 27.03c-40.34,170.07 -1013.73,386.62 -1289.03,456.58 -1998.99,508.09 -5334.24,1346.49 -7403.59,1668.85l-3266.21 451.43c-1266.26,157.77 -2373.91,202.87 -3593.37,293.68 -3273.09,243.76 -7971.53,164.55 -11186.58,-260.11 -599.86,-79.23 -1138.63,-119.67 -1706.66,-210.39 -531.45,-84.87 -1066.1,-158.5 -1603.62,-244.39 -1783.43,-284.95 -4443.95,-795.25 -6191.05,-1178.34l-14759.32 -3299.76c-655.1,-138.96 -3456.9,-612.49 -3944.62,-664.36l-1038.33 -147.58c-848.75,-148.13 -2141.07,-293.88 -3027.95,-424.34 -673.77,-99.11 -1466.14,-144.82 -2143.95,-226.65 -857.95,-103.58 -1658.16,-126.9 -2186.78,-190.94 -913.44,-110.67 -3076.63,-137.43 -4177.56,-136.56 -75.5,0.06 -258.9,-4.87 -321.81,0.25 -165.59,13.45 -161.22,-22.78 -166.72,62.92z"/>
  <path class="fil1" d="M-0 35822.53l0 3452.2 90756.54 0 0 -3682.82c-381.89,13.46 -2214.53,404.7 -2633.28,508.39l-1941.72 407.8c-218.23,43.58 -343.75,91.09 -604.14,131.06 -247.71,38.03 -398.42,96.72 -638.69,134.64l-1344.35 237.83c-729.45,145.94 -1864.31,268.47 -2743.14,412.83l-4778.74 478.45c-451.52,55.2 -1425.27,80.73 -1925.61,84.51 -1078.71,8.15 -2224.56,35.22 -3356.78,31.97 -1096.28,-3.16 -2188.36,-37.46 -3264.3,-68.02l135.98 48.8c-1186.93,11.14 -3537.29,-27.79 -4666.49,-125.02 -704.13,-60.64 -1430.57,-120.65 -2158.1,-186.1 -631.29,-56.8 -1241.48,-158.44 -2007.78,-240.83 -368.55,-39.63 -690.56,-83.34 -1023.5,-126.82l-2965.31 -420.34c-568.88,-74.46 -983.66,-170.89 -1476.26,-238.72 -575.39,-79.2 -2049.15,-379.03 -2380.29,-398.82 -118.64,52.28 -1416.72,-106.55 -1669.28,-129.99 -1206.88,-111.94 -3860.17,-373.24 -4950.17,-563.91l-3064.75 -552.33c-975.01,-196.35 -1976.81,-388.47 -2964.08,-585.38 -240.63,-48 -548.35,-89.95 -774.42,-139.5 -274.6,-60.2 -470.64,-84.92 -766.33,-142.55 -998.78,-194.66 -5450.23,-894.02 -6267.04,-984.46 -523,-57.89 -1086.45,-142.15 -1609,-213.58l-1668.9 -181.51c-575.78,-65.67 -2915.87,-276.06 -3380.24,-284.88 -1298.85,-24.67 -2467.49,-126.78 -3805.45,-60.57l-1822.11 66.64c-820.87,6.37 -2745.81,150.39 -3633.17,213.16 -2054.56,145.33 -4399.94,490.99 -6365.86,922.48 -1556.59,341.64 -4024.88,1006.03 -5548.4,1436.32l-2694.84 759.08z"/>
  <path class="fil2" d="M-0 3655.97c423.09,-58.35 849.82,-146.66 1268.07,-231.95 400.59,-81.68 816.72,-166.32 1241.22,-266.6 4142.61,-978.61 9142.75,-1704.31 13599.72,-1881.24 1672.06,-66.38 3262.33,-3.24 4901.13,-3.58 272.24,-0.05 544.64,-0.77 816.81,-0.67 302.47,0.09 585.85,40.23 827.14,40.68 5.5,-85.7 1.13,-49.47 166.72,-62.92 62.91,-5.12 246.31,-0.19 321.81,-0.25 1100.93,-0.86 3264.13,25.89 4177.56,136.56 528.62,64.04 1328.83,87.36 2186.78,190.94 677.8,81.83 1470.18,127.53 2143.95,226.65 886.88,130.47 2179.2,276.22 3027.95,424.34l1038.33 147.58c487.72,51.88 3289.52,525.4 3944.62,664.36 53.24,-58.84 115.51,-62.77 396.99,-31.2l1293.77 134.25c549.59,62.42 1104.24,119.91 1666.76,164.79 618.22,49.33 2703.88,293.38 3264.57,403.03 478.56,93.58 1080.85,173.47 1536.69,264.22 469.53,93.47 991.74,191.9 1484.51,286.7 1030.38,198.24 2003.53,398.28 2998.97,589.72 1003.41,192.96 2053.08,354.7 3047.67,532 1049.75,187.13 2122.03,319.01 3175.58,495.01l3189.47 440.15c567.93,56.56 1123.91,135.19 1672.31,181.96 539.08,45.98 1155.13,121.87 1693.02,169.18 817.3,71.86 2759.02,179.99 3620.59,181.85 647.99,1.4 1304.25,5.85 1951.54,-2.12 591.45,-7.28 1263.06,-69.16 1858.75,-81.49 1195.8,-24.73 2418.13,-133.33 3545.95,-220.15 1161.06,-89.4 2287.41,-208.61 3347.72,-368.58 3380.66,-510.03 6734.63,-1484.68 9910.94,-2375.08 455.63,-127.73 918.33,-286.08 1335.74,-396.8l7.89 1955.01 95.31 -27.03 0 -5250.7 -90756.54 -1.02 0 3572.41z"/>
  <path class="fil3" d="M90756.54 33605.18l0 -4076.91c-232.62,10.2 -3507.8,786.29 -3842.45,857.43l-1989.04 397.61c-378.64,59.68 -686.49,118.86 -1024.17,182.3 -998.57,187.65 -2315.61,341.88 -3166.55,498.28 -1526.51,280.61 -7131.18,1018.35 -8764.54,1075.99 -446.2,15.74 -733.7,69.2 -1180.79,84.39 -843.22,28.66 -1696.8,116.29 -2447.99,121.93 -1281.27,9.6 -2499.39,48.43 -3858.48,45.51 -1660.36,-3.59 -3397.31,-88.52 -5045.6,-133.74l-3713.5 -148.97c-219.62,-12.32 -418.22,-13.85 -637.37,-16.11 -266.91,-2.75 -306.1,-41.37 -584.58,-46.43 -1035.12,-18.76 -2487.5,-136.63 -3632.84,-182.16 -1173.07,-46.65 -4564.6,-394.05 -5696.78,-542.82 -1160.06,-152.42 -2197.01,-343.17 -3204.59,-461.68 -628.68,-73.94 -1386.07,-250.96 -2119.33,-324.97l-742.03 -124.38c-415.19,-85.62 -937.29,-149.86 -1386.02,-193.43l-2089.76 -318.15c-277.07,-27.49 -870.88,-76.95 -1149.19,-123.46 -751.89,-125.63 -1592.97,-181.84 -2179.3,-276.23l-4573.03 -417.83c-425.14,-21.4 -840.48,-25.03 -1212.03,-76.06l-1785.96 -104.96c-271.27,-6.46 -355.01,-42.8 -588.66,-49.96 -1264.11,-38.66 -2442.6,-147.52 -3676.54,-172.71 -417.03,-8.52 -810.59,-49.57 -1183.93,-69.39 -340.48,-18.08 -991.33,39.5 -1252.97,-1.23 184.06,-24.27 477.32,-24.89 670.75,-21.24 435.23,8.22 63.59,35.91 555.75,109.03l3571.48 338.32c907.16,53.8 3137.23,289.87 4134.53,396.19l4006.26 505.19c338.89,66.18 797.09,113.41 1153.46,164.27 177.59,25.36 307.39,63.59 505.5,95.09l11220.35 1988.72c174.44,35.45 357.03,56.94 545.18,92.02 504.87,94.13 913.47,213.58 1572.83,313.04l5303.42 991.26c368.78,68.42 725.33,125.04 1066.18,185.77 1283.22,228.54 3081.3,542.57 4342.29,717.01 403.15,55.78 736.36,124.36 1142.3,170.84l1677 229c221.45,63.32 1379.75,180.93 1681.28,220.27l1199.84 136.89c359.88,43.08 719.03,78.75 1166.41,121.55 2336.92,223.62 3967.25,330.22 6384.58,326.32 2711.63,-4.37 2781.85,-72.1 5131.86,-225.9 1241.53,-81.26 2361.98,-208.73 3556.07,-360.57 109.58,-13.94 173.97,-21.79 265.7,-32.03l200.86 -27.41c10.94,-2.56 22.23,-6.44 32.32,-9.17 302.46,-82.02 311.3,-39.62 660.31,-67.74 220.22,-17.74 364.23,-54.58 551.15,-78.69 217.56,-28.07 377.67,-43.69 570.97,-73.24l3305.23 -512.73c352.59,-58.86 694.24,-130.06 1042.62,-188.11 418.52,-69.73 757.76,-118.01 1126.86,-181.89 685.73,-118.66 1493.41,-243.18 2172.91,-373.78 369.5,-71.02 675.56,-125.43 1079.84,-181.68 361.53,-50.31 749.18,-162.7 1131.94,-168.44z"/>
  <path class="fil4" d="M-0 5658.36l0 4043.12c216.92,-25.55 737.31,-153.78 992.57,-213.31 745.92,-173.97 2164.28,-518.24 2866.68,-644.19 351.81,-63.08 661.04,-161.49 966.83,-208.93 385.52,-59.83 636.16,-108.79 1003.03,-177.1 685.46,-127.63 1305.21,-236.28 2037.01,-346.41l2635.54 -421.11c174,-38.11 341.15,-47.02 508.54,-73.93l2110.1 -301.77c871.14,-158.74 3415.93,-376.09 3821.36,-448.36 301.19,-53.7 2507.31,-217.3 2886.7,-236.21 378.08,-18.84 770.98,-33.82 1182.75,-57.13 1483.22,-83.99 6026.3,-151.65 7610.55,-49.89 787.13,50.55 1647.27,31.86 2460.95,78.17 810.51,46.11 1618.43,52.35 2452.78,92.44 780.47,37.47 1621.64,103.02 2405.25,112.47 128.99,1.55 215.91,-0.45 336.33,15.12l2068.36 118.83c342.49,12.98 803.64,55.62 1180.61,76.99l2385.05 146.8 3284.12 351.76 4213.93 622.99c196.62,29.55 371.7,44.66 555.17,80.34 1010.8,196.62 2566.88,363.65 3587.43,558.36 182.03,34.73 382.04,44.02 564.2,72.77 162.65,25.68 356.98,51.63 530.99,70.12 405.65,43.08 685.04,109.25 1080.47,143.67l4431.47 478.05c383.91,27.6 741.27,81.02 1144.54,101.87 716.45,37.04 1688.58,166.32 2272.56,184.8 1071.84,33.93 2422.62,193.54 3539.62,211.76 923.99,15.08 2444,145.55 3586.91,181.47 339.45,10.67 276.44,57.24 538.13,57.14 201.5,-0.08 405.73,-20.97 623.06,-20.99l1.64 1.24c-168.91,-2.3 -587.32,-106.61 -1096.14,-153.57 -423.04,-39.04 -812.1,-71.66 -1206.9,-106.69 -2913.02,-258.42 -5283.71,-482.96 -8192.9,-825.02l-1153.43 -142.41c-733.01,-117.67 -1441.48,-216.63 -2201.77,-326.67 -987.12,-142.88 -2644.08,-445.81 -3717.55,-637.01 -188.13,-33.51 -380.9,-70.78 -534.44,-91.84 -1457.57,-199.89 -3789.39,-716.72 -5285.44,-959.35l-1547.68 -301.96c-480.21,-60.58 -1089.56,-215.05 -1568.69,-295.17l-7363.82 -1355.36c-514.58,-88.15 -1734.49,-279.45 -2159.38,-378.55l-6642.95 -951.31 -4690.72 -460.04c-1312.14,-67.29 -2610.94,-103.07 -3947.06,-101.13 -441.83,0.63 -925.34,-6.33 -1362.68,5.92 -235.95,6.61 -333.65,38.52 -586.46,43.1l-1957.97 76.6c-1540.97,148.32 -3126.34,266.14 -4668.84,463.68 -1542.18,197.48 -4741.04,622.53 -6085.15,883.41l-3722.47 645.94c-273.23,68.86 -796.17,134.97 -1091.49,177.86 -353.18,51.29 -704.37,137.4 -1081.28,188.64z"/>
  <path class="fil5" d="M-0 3655.97l0 2002.39c376.91,-51.24 728.1,-137.36 1081.28,-188.64 295.32,-42.89 818.27,-109.01 1091.49,-177.86l3722.47 -645.94c1344.11,-260.89 4542.97,-685.94 6085.15,-883.41 1542.5,-197.54 3127.87,-315.36 4668.84,-463.68l1957.97 -76.6c252.8,-4.58 350.51,-36.49 586.46,-43.1 437.34,-12.26 920.85,-5.3 1362.68,-5.92 1336.12,-1.94 2634.93,33.84 3947.06,101.13l4690.72 460.04 6642.95 951.31c424.89,99.1 1644.8,290.4 2159.38,378.55l7363.82 1355.36c479.13,80.12 1088.48,234.6 1568.69,295.17l1547.68 301.96c1496.05,242.64 3827.88,759.46 5285.44,959.35 153.54,21.06 346.31,58.32 534.44,91.84 1073.47,191.2 2730.42,494.13 3717.55,637.01 760.29,110.04 1468.76,209 2201.77,326.67l1153.43 142.41c2909.19,342.06 5279.88,566.6 8192.9,825.02 394.8,35.02 783.87,67.65 1206.9,106.69 508.82,46.96 927.23,151.28 1096.14,153.57 1367.16,38.57 2637.12,-108.54 3913.71,-172.78 1211.62,-60.96 2469.51,-227.44 3592.37,-355.42 1155.47,-131.69 2280.75,-310.37 3342.82,-532.91 581.17,-121.79 2437.06,-617.57 2856.66,-831.05l-1817.47 356.7c-1543.57,287.08 -2524.36,351.76 -4054.49,526.97 -293.03,33.56 -756.88,53.36 -1072.99,95.46 -352.59,46.99 -730.39,47.99 -1094.29,88.54 -1387.3,154.59 -3053.56,197.64 -4563.3,210.42 -963.83,8.16 -2627.16,17.77 -3572.91,-71.61 -275.75,-26.05 -856.95,-56.48 -1147.99,-64.65 -206.57,-5.8 -297.62,-35.22 -495.78,-46.91l-1618.07 -153.22c-2882.77,-314.25 -5021.13,-747.17 -7730.51,-1297.42 -279.74,-56.81 -588.89,-129.85 -891.72,-200.63 -288.41,-67.41 -573.72,-138.26 -890.27,-206.43 -1257.31,-270.76 -3085.9,-712.42 -4405.88,-1051.34 -3781.64,-970.95 -7744.4,-1852.63 -11616.21,-2688.45 -632.32,-136.5 -1232.99,-279.88 -1835.2,-388.04l-1830.68 -384.68c-2130.87,-438.17 -3488.3,-675.58 -5670.06,-1050.12 -1418.95,-243.59 -3686.62,-495.7 -5175.08,-590.12 -353.09,-22.4 -803.88,-30.02 -1115.01,-68.4 -342.66,-42.26 -799.32,-19.85 -1150.97,-49.86 -357.22,-30.46 -784.29,-32.43 -1167.83,-20.74 -241.28,-0.44 -524.66,-40.59 -827.14,-40.68 -272.17,-0.1 -544.57,0.63 -816.81,0.67 -1638.8,0.34 -3229.07,-62.79 -4901.13,3.58 -4456.98,176.93 -9457.12,902.63 -13599.72,1881.24 -424.5,100.27 -840.63,184.91 -1241.22,266.6 -418.25,85.29 -844.98,173.6 -1268.07,231.95z"/>
  <path class="fil5" d="M17743.13 29032.69c-1190.52,11.94 -2450.39,89.3 -3577.94,189.39 -3034.77,269.39 -5695.51,565.75 -8460.45,1431.55l-559.62 191.85c-8.57,4.18 -19.37,10.7 -26.94,14.69 -7.76,4.09 -20.28,12.34 -26.48,15.78 -6.31,3.5 -17.91,10.7 -26.52,16.25 294.14,-31.23 624.45,-126.32 910.73,-185.32 284.04,-58.55 633.26,-128.4 926.52,-182.83 1527.46,-283.53 5079.49,-647 6709.05,-738.37 192.92,-10.84 324.69,-28.53 546.61,-38.75 1267.65,-58.38 2070.89,-131.64 3448.68,-134.38 3014.57,-5.99 5886.69,152.78 8771.69,592.57 667.83,101.81 1217.02,189.39 1923.14,299.6 1892.85,295.41 7069.95,1437.88 9048.89,1963.68l11498.28 2687.68c285.84,58.61 600.08,146.73 897.14,200.2 651.04,117.16 1215.77,264.58 1829.21,388.44l4565.01 922.19c297.32,58.43 583.76,126.96 926.88,182.18 955.37,153.74 1890.3,337.07 2875.28,470.14l2532.49 318.35c1662.69,169.71 3344.47,274.64 5051.02,313.79 1075.94,30.57 2168.02,64.86 3264.3,68.02 1132.23,3.25 2278.07,-23.81 3356.78,-31.97 500.34,-3.79 1474.09,-29.32 1925.61,-84.51l4778.74 -478.45c878.83,-144.36 2013.68,-266.89 2743.14,-412.83l1344.35 -237.83c240.27,-37.92 390.98,-96.61 638.69,-134.64 260.39,-39.97 385.91,-87.48 604.14,-131.06l1941.72 -407.8c418.75,-103.69 2251.38,-494.93 2633.28,-508.39l0 -1986.73c-382.76,5.73 -770.41,118.13 -1131.94,168.44 -404.27,56.26 -710.34,110.67 -1079.84,181.68 -679.5,130.6 -1487.18,255.12 -2172.91,373.78 -369.1,63.87 -708.34,112.16 -1126.86,181.89 -348.38,58.05 -690.03,129.25 -1042.62,188.11l-3305.23 512.73c-193.29,29.55 -353.41,45.18 -570.97,73.24 -186.92,24.11 -330.93,60.95 -551.15,78.69 -349.02,28.12 -357.85,-14.28 -660.31,67.74 -10.09,2.73 -21.38,6.61 -32.32,9.17l-200.86 27.41c-91.72,10.25 -156.12,18.09 -265.7,32.03 -1194.09,151.85 -2314.54,279.31 -3556.07,360.57 -2350.01,153.8 -2420.23,221.53 -5131.86,225.9 -2417.33,3.9 -4047.65,-102.7 -6384.58,-326.32 -447.38,-42.8 -806.53,-78.48 -1166.41,-121.55l-1199.84 -136.89c-301.53,-39.33 -1459.83,-156.95 -1681.28,-220.27l-1677 -229c-405.94,-46.48 -739.15,-115.06 -1142.3,-170.84 -1261,-174.44 -3059.08,-488.48 -4342.29,-717.01 -340.85,-60.72 -697.4,-117.34 -1066.18,-185.77l-5303.42 -991.26c-659.36,-99.46 -1067.96,-218.9 -1572.83,-313.04 -188.14,-35.08 -370.74,-56.57 -545.18,-92.02l-11220.35 -1988.72c-198.12,-31.5 -327.91,-69.73 -505.5,-95.09 -356.36,-50.87 -814.57,-98.09 -1153.46,-164.27l-4006.26 -505.19c-997.3,-106.31 -3227.38,-342.39 -4134.53,-396.19l-3571.48 -338.32c-492.16,-73.12 -120.53,-100.81 -555.75,-109.03 -193.43,-3.65 -486.69,-3.02 -670.75,21.24l-285.39 25.65z"/>
  <path class="fil6" d="M-0 33784.91l0 2037.62 2694.84 -759.08c1523.52,-430.29 3991.81,-1094.69 5548.4,-1436.32 1965.92,-431.48 4311.29,-777.15 6365.86,-922.48 887.36,-62.77 2812.3,-206.79 3633.17,-213.16l1822.11 -66.64c1337.96,-66.22 2506.6,35.9 3805.45,60.57 464.37,8.82 2804.47,219.21 3380.24,284.88l1668.9 181.51c522.55,71.44 1086,155.69 1609,213.58 816.81,90.44 5268.26,789.8 6267.04,984.46 295.7,57.63 491.73,82.35 766.33,142.55 226.07,49.55 533.78,91.5 774.42,139.5 987.27,196.91 1989.06,389.02 2964.08,585.38l3064.75 552.33c1090,190.67 3743.29,451.96 4950.17,563.91 252.56,23.44 1550.64,182.26 1669.28,129.99 -388.56,-135.12 -11455.12,-2612.8 -11745.24,-2678.58l-6018.93 -1250.39c-1435.41,-301.73 -3206.94,-582.6 -4711.89,-805.17 -545.43,-80.65 -1146.29,-136.73 -1687.71,-218.32l-3450.93 -327.71c-2011.14,-87.14 -3794.23,-146.68 -5840.65,-52.49 -1017.59,46.84 -2692.24,99.88 -3655.16,207.54 -611.38,68.35 -1171.34,88.1 -1782.42,161.75 -4206.03,506.89 -6810.17,1084.87 -10667.45,2090.59l-1423.66 394.17z"/>
  <path class="fil7" d="M90661.23 5362.31l-7.89 -1955.01c-417.42,110.73 -880.12,269.07 -1335.74,396.8 -3176.32,890.41 -6530.28,1865.06 -9910.94,2375.08 -1060.31,159.96 -2186.66,279.17 -3347.72,368.58 -1127.82,86.82 -2350.15,195.42 -3545.95,220.15 -595.69,12.33 -1267.3,74.21 -1858.75,81.49 -647.28,7.96 -1303.55,3.51 -1951.54,2.12 -861.57,-1.86 -2803.29,-110 -3620.59,-181.85 -537.89,-47.31 -1153.93,-123.2 -1693.02,-169.18 -548.4,-46.77 -1104.38,-125.39 -1672.31,-181.96l-3189.47 -440.15c-1053.55,-176 -2125.83,-307.87 -3175.58,-495.01 -994.59,-177.29 -2044.26,-339.03 -3047.67,-532 -995.44,-191.44 -1968.58,-391.48 -2998.97,-589.72 -492.77,-94.81 -1014.97,-193.23 -1484.51,-286.7 -455.84,-90.75 -1058.13,-170.64 -1536.69,-264.22 -560.69,-109.66 -2646.35,-353.7 -3264.57,-403.03 -562.52,-44.87 -1117.17,-102.37 -1666.76,-164.79l-1293.77 -134.25c-281.48,-31.57 -343.75,-27.63 -396.99,31.2l14759.32 3299.76c1747.1,383.09 4407.62,893.39 6191.05,1178.34 537.52,85.89 1072.17,159.52 1603.62,244.39 568.03,90.71 1106.8,131.16 1706.66,210.39 3215.05,424.66 7913.49,503.88 11186.58,260.11 1219.46,-90.81 2327.11,-135.91 3593.37,-293.68l3266.21 -451.43c2069.35,-322.36 5404.59,-1160.76 7403.59,-1668.85 275.3,-69.96 1248.69,-286.51 1289.03,-456.58z"/>
  <path class="fil8" d="M17743.13 29032.69l285.39 -25.65c261.64,40.73 912.49,-16.85 1252.97,1.23 373.34,19.82 766.9,60.87 1183.93,69.39 1233.94,25.19 2412.43,134.05 3676.54,172.71 233.65,7.15 317.39,43.5 588.66,49.96l1785.96 104.96c371.56,51.04 786.89,54.66 1212.03,76.06l4573.03 417.83c586.33,94.38 1427.41,150.59 2179.3,276.23 278.31,46.51 872.12,95.98 1149.19,123.46l2089.76 318.15c448.72,43.58 970.83,107.81 1386.02,193.43l742.03 124.38c733.25,74.01 1490.65,251.03 2119.33,324.97 1007.58,118.5 2044.52,309.25 3204.59,461.68 1132.18,148.77 4523.7,496.18 5696.78,542.82 1145.34,45.53 2597.72,163.4 3632.84,182.16 278.48,5.06 317.67,43.68 584.58,46.43 219.14,2.26 417.75,3.8 637.37,16.11l3713.5 148.97c1648.29,45.22 3385.25,130.15 5045.6,133.74 1359.09,2.92 2577.2,-35.91 3858.48,-45.51 751.19,-5.64 1604.77,-93.27 2447.99,-121.93 447.1,-15.19 734.59,-68.65 1180.79,-84.39 1633.36,-57.64 7238.03,-795.39 8764.54,-1075.99 850.94,-156.41 2167.97,-310.63 3166.55,-498.28 337.68,-63.44 645.53,-122.62 1024.17,-182.3l1989.04 -397.61c334.65,-71.14 3609.84,-847.23 3842.45,-857.43l0 -1205.27c-171.61,3.67 -1669.29,300.64 -2012.44,371.7l-4916.43 1045.78c-974.47,198.42 -1963.79,427.6 -2974.64,608.32 -336.07,60.09 -617.55,142.5 -973.5,202.6l-3085.43 537.51c-755.6,119.27 -1400.08,229.5 -2180.16,299.97 -255.84,23.11 -268.6,51.07 -464.54,89.57l-1666.57 184.48c-1081.43,140.25 -3557.04,329.57 -4689.54,343.6 -814.17,10.08 -1709.79,36.37 -2584.71,36.83 -3453.32,1.86 -6772.68,-130.99 -10029.98,-293.63 -847.97,-42.33 -1617.24,-61.18 -2444.94,-105.27 -743.79,-39.62 -1620.91,-84.38 -2400.33,-141.34l-2904.16 -225.85c-567.34,-48.66 -1018.01,-121.03 -1733.41,-163.99l-4406.12 -531.54c-170.8,-25.43 -332.82,-49.16 -517.95,-70.08 -546.02,-61.7 -224.29,-32.07 -517.87,-97.86 -98.68,-22.12 -420.4,-30.82 -559.36,-51.46 -533.93,-79.29 -1171.4,-115.85 -1689.09,-201.62 -636.84,-105.49 -2239.79,-259.63 -2441.4,-311.57l-3653.42 -389.85c-193.68,-16.59 -391.83,-34.97 -574.47,-61.13l-2317.79 -195.2c-392.38,-34.74 -765.62,-66.61 -1152.89,-91.19 -182.05,-11.56 -362.12,-25.3 -593.22,-29.43 -95.81,-1.71 -222.45,-1.72 -314.25,-11.26 -1452.64,-150.88 -5120.21,-118.61 -6719.17,-127 -405.68,-2.14 -901.83,-16.23 -1296.94,11.37 -274.57,19.18 -968.26,-42.04 -1198.65,77.2z"/>
  <path class="fil8" d="M-0 9701.48l0 1232.7c139.17,-4.71 170.56,-10.85 258.74,-34.58l2628.93 -544.65c671.73,-127.66 774.12,-191.38 1461.31,-307 215.73,-36.3 263.98,-59.2 457.46,-105.89 631.36,-152.37 1198.93,-238.51 1924.35,-413.55 311.33,-75.13 649.24,-143.61 970.91,-213.77 327.15,-71.37 655.03,-116.54 959.67,-194.91l1484.34 -291.39c230.38,-34.72 256.35,-69.58 455.27,-104.16l2027.33 -353.85c788.85,-149.66 4051.07,-651.25 4751.52,-676.54 698.1,-25.21 321.58,-88.37 1134.27,-116.98l1690.13 -156.21c667.1,-59.39 2062.7,-79.71 2939.78,-162.6 515.15,-48.68 6122.4,6.42 7031.11,52.62 1614.15,82.07 3252.72,108.93 4859.31,191.33l3546.71 186.3c397.62,26.91 891.7,1.3 1285.61,41.38l1110.86 90.73c91.15,4.38 227.8,1.13 309.15,12.35 261.68,36.04 -33.68,47.86 826.82,86.9 775.96,35.2 1549.15,133.96 2276.64,200.37 402.43,36.73 809.42,45.8 1131.7,97.5l2189.75 251.92c972.4,105.36 2086.95,289.08 3236.38,417.42 288.44,32.2 734.4,88.1 1028.95,143.44l4574.22 567.1c78.74,10.63 220.62,22.06 277.38,27.16 257.02,23.06 340.43,42.54 570.47,65.85 193.53,19.63 372.99,26.14 587.2,43.91 365.4,30.29 846.85,146.08 1640.65,175.5 766.51,28.41 1569.57,157.06 2313.87,179.49 802.54,24.2 1530.53,117.58 2361.11,136.21 814.7,18.27 1617.47,69.9 2449.56,82.38 1333.13,20 2604.59,-13.84 3857.15,0.63 210.98,2.44 426,15.85 635.32,14.49 101.45,-0.66 219.48,-4.23 321.07,-8.06 27.53,-1.03 153.62,-7.7 174.05,-11.41 137.54,-25.01 52.97,22.05 124.56,-45.52 -217.33,0.02 -421.56,20.91 -623.06,20.99 -261.68,0.1 -198.67,-46.48 -538.13,-57.14 -1142.91,-35.92 -2662.92,-166.39 -3586.91,-181.47 -1117,-18.22 -2467.77,-177.83 -3539.62,-211.76 -583.98,-18.48 -1556.11,-147.76 -2272.56,-184.8 -403.27,-20.84 -760.64,-74.27 -1144.54,-101.87l-4431.47 -478.05c-395.44,-34.42 -674.83,-100.59 -1080.47,-143.67 -174.01,-18.49 -368.34,-44.44 -530.99,-70.12 -182.16,-28.75 -382.18,-38.04 -564.2,-72.77 -1020.56,-194.7 -2576.64,-361.74 -3587.43,-558.36 -183.47,-35.68 -358.56,-50.79 -555.17,-80.34l-4213.93 -622.99 -3284.12 -351.76 -2385.05 -146.8c-376.97,-21.37 -838.12,-64.01 -1180.61,-76.99l-2068.36 -118.83c-120.41,-15.58 -207.34,-13.58 -336.33,-15.12 -783.62,-9.45 -1624.79,-75 -2405.25,-112.47 -834.35,-40.08 -1642.26,-46.33 -2452.78,-92.44 -813.68,-46.31 -1673.82,-27.62 -2460.95,-78.17 -1584.25,-101.76 -6127.33,-34.1 -7610.55,49.89 -411.77,23.31 -804.67,38.29 -1182.75,57.13 -379.39,18.91 -2585.52,182.51 -2886.7,236.21 -405.43,72.27 -2950.22,289.62 -3821.36,448.36l-2110.1 301.77c-167.39,26.91 -334.54,35.82 -508.54,73.93l-2635.54 421.11c-731.8,110.13 -1351.55,218.78 -2037.01,346.41 -366.87,68.31 -617.51,117.28 -1003.03,177.1 -305.78,47.44 -615.01,145.85 -966.83,208.93 -702.4,125.95 -2120.76,470.22 -2866.68,644.19 -255.26,59.53 -775.65,187.76 -992.57,213.31z"/>
  <polygon class="fil9" points="-0,83.56 90756.54,84.58 90756.54,0 -0,0 "/>
 </g>
</svg>
