<?xml version="1.0" encoding="UTF-8"?>
<!DOCTYPE svg PUBLIC "-//W3C//DTD SVG 1.1//EN" "http://www.w3.org/Graphics/SVG/1.1/DTD/svg11.dtd">
<!-- Creator: CorelDRAW 2020 (64-Bit) -->
<svg xmlns="http://www.w3.org/2000/svg" xml:space="preserve" width="466.165mm" height="196.825mm" version="1.1" style="shape-rendering:geometricPrecision; text-rendering:geometricPrecision; image-rendering:optimizeQuality; fill-rule:evenodd; clip-rule:evenodd"
viewBox="0 0 46616.52 19682.53"
 xmlns:xlink="http://www.w3.org/1999/xlink"
 xmlns:xodm="http://www.corel.com/coreldraw/odm/2003">
 <defs>
  <style type="text/css">
   <![CDATA[
    .fil6 {fill:none}
    .fil1 {fill:#008FD7}
    .fil3 {fill:url(#id1)}
    .fil2 {fill:url(#id2)}
    .fil5 {fill:url(#id3)}
    .fil0 {fill:url(#id4)}
    .fil4 {fill:url(#id5)}
   ]]>
  </style>
   <clipPath id="id0">
    <path d="M-0 0l46616.52 0 0 19682.53 -46616.52 0 0 -19682.53z"/>
   </clipPath>
  <linearGradient id="id1" gradientUnits="userSpaceOnUse" x1="22740.89" y1="5963.6" x2="23961.96" y2="13200.98">
   <stop offset="0" style="stop-opacity:1; stop-color:#00A2E9"/>
   <stop offset="0.431373" style="stop-opacity:1; stop-color:#0099E0"/>
   <stop offset="1" style="stop-opacity:1; stop-color:#008FD7"/>
  </linearGradient>
  <linearGradient id="id2" gradientUnits="userSpaceOnUse" x1="32140.15" y1="3731.82" x2="31482.77" y2="14655.81">
   <stop offset="0" style="stop-opacity:1; stop-color:#83D0CB"/>
   <stop offset="0.439216" style="stop-opacity:1; stop-color:#BFDCD1"/>
   <stop offset="1" style="stop-opacity:1; stop-color:#FBE9D7"/>
  </linearGradient>
  <linearGradient id="id3" gradientUnits="userSpaceOnUse" x1="22250.06" y1="1226.77" x2="22711.46" y2="7141.22">
   <stop offset="0" style="stop-opacity:1; stop-color:#83D0CB"/>
   <stop offset="0.509804" style="stop-opacity:1; stop-color:#42B9DA"/>
   <stop offset="1" style="stop-opacity:1; stop-color:#00A2E9"/>
  </linearGradient>
  <linearGradient id="id4" gradientUnits="userSpaceOnUse" x1="22531.31" y1="0.01" x2="22617.64" y2="20200.49">
   <stop offset="0" style="stop-opacity:1; stop-color:#83D0CB"/>
   <stop offset="0.568627" style="stop-opacity:1; stop-color:#BFDCD1"/>
   <stop offset="1" style="stop-opacity:1; stop-color:#FBE9D7"/>
  </linearGradient>
  <linearGradient id="id5" gradientUnits="userSpaceOnUse" x1="26089.84" y1="5784.48" x2="26137.93" y2="12257.85">
   <stop offset="0" style="stop-opacity:1; stop-color:#83D0CB"/>
   <stop offset="1" style="stop-opacity:1; stop-color:#00A2E9"/>
  </linearGradient>
 </defs>
 <g id="Layer_x0020_1">
  <metadata id="CorelCorpID_0Corel-Layer"/>
  <polygon class="fil0" points="-0,0 46616.52,0 46616.52,19682.53 -0,19682.53 "/>
  <g style="clip-path:url(#id0)">
   <g id="_1796153316528">
    <path id="1" class="fil1" d="M-866.32 2694.27l48688.36 0 -180.33 7487.46c-16551.11,-8451.28 -28739.81,2833.44 -48417.85,2183.28l-90.18 -9670.75z"/>
    <path class="fil2" d="M-874.34 1940.26l48688.36 0 -94.01 7746.44c-18536.61,-10436.78 -29257.76,1970.17 -48504.17,1924.3l-90.18 -9670.75z"/>
    <path class="fil1" d="M-859.7 1787.76l48688.36 0 -180.33 6624.2c-15515.18,-9659.85 -29171.44,3092.41 -48417.85,3046.54l-90.18 -9670.75z"/>
    <path class="fil3" d="M-874.34 1940.26l48688.36 0 -180.33 5415.62c-18191.31,-8796.58 -26495.32,5077.94 -48417.85,4255.12l-90.18 -9670.75z"/>
    <path class="fil1" d="M-866.32 408.18l48688.36 0 -180.33 5415.62c-15774.16,-7588.01 -28912.46,6286.49 -48417.85,4773.08l-90.18 -10188.71z"/>
    <path class="fil4" d="M-866.32 408.18l48688.36 0 -180.33 5415.62c-17328.04,-8364.95 -23905.51,6200.19 -48417.85,4255.12l-90.18 -9670.75z"/>
    <path class="fil5" d="M-858.3 -1123.9l48688.36 0 -180.34 5415.62c-14997.21,-7156.36 -28912.45,8703.67 -48417.84,4255.12l-90.18 -9670.75z"/>
   </g>
  </g>
  <polygon class="fil6" points="-0,0 46616.52,0 46616.52,19682.53 -0,19682.53 "/>
 </g>
</svg>
