<?xml version="1.0" encoding="UTF-8"?>
<!DOCTYPE svg PUBLIC "-//W3C//DTD SVG 1.1//EN" "http://www.w3.org/Graphics/SVG/1.1/DTD/svg11.dtd">
<!-- Creator: CorelDRAW 2020 (64-Bit) -->
<svg xmlns="http://www.w3.org/2000/svg" xml:space="preserve" width="464.735mm" height="195.665mm" version="1.1" style="shape-rendering:geometricPrecision; text-rendering:geometricPrecision; image-rendering:optimizeQuality; fill-rule:evenodd; clip-rule:evenodd"
viewBox="0 0 46316.23 19500.24"
 xmlns:xlink="http://www.w3.org/1999/xlink"
 xmlns:xodm="http://www.corel.com/coreldraw/odm/2003">
 <defs>
  <style type="text/css">
   <![CDATA[
    .fil8 {fill:none}
    .fil0 {fill:#FEFEFE}
    .fil2 {fill:#FFFCDB}
    .fil3 {fill:#234E9E}
    .fil5 {fill:#008FD7}
    .fil4 {fill:url(#id1)}
    .fil6 {fill:url(#id2)}
    .fil7 {fill:url(#id3)}
    .fil1 {fill:url(#id4)}
   ]]>
  </style>
   <clipPath id="id0">
    <path d="M-0 19500.24l46316.23 0 0 -19500.24 -46316.23 0 0 19500.24z"/>
   </clipPath>
  <linearGradient id="id1" gradientUnits="userSpaceOnUse" x1="-72.5" y1="9481.65" x2="46628.31" y2="13323.39">
   <stop offset="0" style="stop-opacity:1; stop-color:#008FD7"/>
   <stop offset="0.431373" style="stop-opacity:1; stop-color:#116FBB"/>
   <stop offset="1" style="stop-opacity:1; stop-color:#234E9E"/>
  </linearGradient>
  <linearGradient id="id2" gradientUnits="userSpaceOnUse" x1="23648.88" y1="13373.68" x2="23865.66" y2="18706.38">
   <stop offset="0" style="stop-opacity:1; stop-color:#008FD7"/>
   <stop offset="0.760784" style="stop-opacity:1; stop-color:#59BFB4"/>
   <stop offset="1" style="stop-opacity:1; stop-color:#B2EF91"/>
  </linearGradient>
  <linearGradient id="id3" gradientUnits="userSpaceOnUse" x1="23984.9" y1="11786.03" x2="23622.95" y2="18706.75">
   <stop offset="0" style="stop-opacity:1; stop-color:#008FD7"/>
   <stop offset="0.270588" style="stop-opacity:1; stop-color:#59BFB4"/>
   <stop offset="1" style="stop-opacity:1; stop-color:#B2EF91"/>
  </linearGradient>
  <linearGradient id="id4" gradientUnits="userSpaceOnUse" x1="24152.68" y1="8289.7" x2="24281.96" y2="14960.05">
   <stop offset="0" style="stop-opacity:1; stop-color:#008FD7"/>
   <stop offset="0.639216" style="stop-opacity:1; stop-color:#59BFB4"/>
   <stop offset="1" style="stop-opacity:1; stop-color:#B2EF91"/>
  </linearGradient>
 </defs>
 <g id="Layer_x0020_1">
  <metadata id="CorelCorpID_0Corel-Layer"/>
  <polygon class="fil0" points="-0,19500.24 46316.23,19500.24 46316.23,0 -0,0 "/>
  <g style="clip-path:url(#id0)">
   <g id="_2725389208512">
    <path id="1" class="fil1" d="M-186.15 26409.87l46720.36 0c0,-6500.08 0,-13000.16 0,-19500.24 -15156.26,-2822.46 -28678.05,10037.22 -46783.24,3302.96l62.88 16197.28z"/>
    <path class="fil2" d="M-60.58 28448.49l46616.85 0c0,-6500.08 0,-13000.16 0,-19500.24 -15122.68,-2822.46 -28739.96,8416.9 -46805.03,1682.64l188.18 17817.6z"/>
    <path class="fil3" d="M-314.7 28895.43l46929.42 0c0,-6500.08 127.06,-13372.9 127.06,-19872.97 -15119.33,-957.23 -26683.39,8128.1 -46993.34,1556.81l-63.14 18316.16z"/>
    <path class="fil0" d="M-128.83 31938.67l46967.91 0c0,-6500.08 0,-15283.95 0,-21784.02 -15550.52,-1451.41 -27704.65,9950.42 -47031.92,601.14l64.01 21182.88z"/>
    <path class="fil4" d="M61.45 31862.28l46616.85 0c0,-6500.08 0,-15283.95 0,-21784.02 -15434.29,-1451.41 -28864.6,10326.75 -46867.34,1660.58l250.49 20123.44z"/>
    <path class="fil5" d="M21.45 31774.28l46616.85 0c0,-6500.08 -127.05,-14140.45 -127.05,-20640.53 -15434.29,-1451.41 -28799.87,10242.7 -46802.61,1576.53l312.81 19064z"/>
    <path class="fil6" d="M459.35 31705.88l46616.85 0c0,-6500.08 0,-15283.95 0,-21784.02 -15434.29,-1451.41 -29308.08,11449.72 -47310.83,2783.55l693.97 19000.48z"/>
    <path class="fil2" d="M29.44 33554.32l46616.85 0c0,-6500.08 0,-15283.95 0,-21784.02 -15434.29,-1451.41 -29308.08,11449.72 -47310.83,2783.55l693.97 19000.48z"/>
    <path class="fil7" d="M-361.13 20868.12l47485.32 0c0,-2362.16 -44.15,-6962.74 -44.15,-9324.89 -21537.24,-2052.69 -33744.37,10201.61 -47786.35,4106.41l345.18 5218.49z"/>
   </g>
  </g>
  <polygon class="fil8" points="-0,19500.24 46316.23,19500.24 46316.23,0 -0,0 "/>
 </g>
</svg>
