<?xml version="1.0" encoding="UTF-8"?>
<!DOCTYPE svg PUBLIC "-//W3C//DTD SVG 1.1//EN" "http://www.w3.org/Graphics/SVG/1.1/DTD/svg11.dtd">
<!-- Creator: CorelDRAW -->
<svg xmlns="http://www.w3.org/2000/svg" xml:space="preserve" width="31.4212in" height="13.6185in" version="1.1" style="shape-rendering:geometricPrecision; text-rendering:geometricPrecision; image-rendering:optimizeQuality; fill-rule:evenodd; clip-rule:evenodd"
viewBox="0 0 28291.96 12262.27"
 xmlns:xlink="http://www.w3.org/1999/xlink"
 xmlns:xodm="http://www.corel.com/coreldraw/odm/2003">
 <defs>
  <style type="text/css">
   <![CDATA[
    .fil3 {fill:#00BAE9}
    .fil1 {fill:#40C9FF}
    .fil2 {fill:#5FEFFF}
    .fil7 {fill:#6699FF}
    .fil6 {fill:#6699FF}
    .fil8 {fill:#89E0FE}
    .fil5 {fill:#9999FF}
    .fil4 {fill:#CCCCFF}
    .fil0 {fill:white}
   ]]>
  </style>
   <clipPath id="id0">
    <rect y="18.97" width="28291.96" height="12243.3"/>
   </clipPath>
 </defs>
 <g id="Layer_x0020_1">
  <metadata id="CorelCorpID_0Corel-Layer"/>
  <g style="clip-path:url(#id0)">
   <image x="-0" y="18.97" width="28291.96" height="12243.3" xlink:href="coba corel coy1_Images\coba corel coy1_ImgID1.png"/>
  </g>
  <path class="fil0" d="M7062.07 428.16c119.56,-3.64 252.7,-3.03 364.05,6.47 109.62,9.36 251.98,2.37 358.8,15.54 96.99,11.96 237.52,14.34 347.59,21.32 464.01,29.43 1170.92,108.02 1613.25,183.96 680.13,116.76 1103.29,190.77 1767.56,327.36l570.69 119.92c187.73,33.72 374.98,78.41 572.09,120.97 1206.98,260.56 2442.31,535.4 3621.18,838.08 411.48,105.65 981.52,243.33 1373.47,327.74 98.68,21.25 187.62,43.34 277.53,64.35 94.4,22.06 190.77,44.83 277.98,62.54 844.61,171.53 1511.21,306.49 2409.87,404.45l504.41 47.76c61.77,3.64 90.16,12.81 154.55,14.62 90.73,2.55 271.91,12.03 357.87,20.15 294.82,27.86 813.34,24.87 1113.8,22.32 470.64,-3.98 990.07,-17.41 1422.54,-65.6 113.44,-12.64 231.21,-12.95 341.13,-27.6 98.54,-13.13 243.14,-19.3 334.49,-29.76 476.99,-54.62 782.74,-74.78 1263.92,-164.28l566.57 -111.2c-130.8,66.55 -709.35,221.1 -890.52,259.07 -331.09,69.37 -681.87,125.07 -1042.07,166.13 -350.03,39.89 -742.16,91.79 -1119.87,110.8 -397.96,20.03 -793.85,65.89 -1220.04,53.86l-0.51 -0.39c-22.32,21.06 4.04,6.4 -38.83,14.19 -6.37,1.16 -45.68,3.23 -54.26,3.56 -31.67,1.19 -68.46,2.31 -100.09,2.51 -65.25,0.43 -132.28,-3.75 -198.05,-4.52 -390.47,-4.51 -786.82,6.04 -1202.41,-0.19 -259.39,-3.89 -509.64,-19.98 -763.61,-25.68 -258.92,-5.81 -485.86,-34.92 -736.04,-42.46 -232.03,-6.99 -482.36,-47.1 -721.31,-55.95 -247.45,-9.17 -397.54,-45.27 -511.45,-54.71 -66.78,-5.54 -122.72,-7.57 -183.05,-13.69 -71.71,-7.27 -97.71,-13.34 -177.83,-20.53 -17.69,-1.59 -61.92,-5.15 -86.47,-8.47l-1425.94 -176.79c-91.82,-17.25 -230.84,-34.68 -320.76,-44.72 -358.32,-40.01 -705.76,-97.28 -1008.89,-130.12l-682.62 -78.53c-100.47,-16.12 -227.34,-18.94 -352.79,-30.39 -226.78,-20.7 -467.81,-51.49 -709.71,-62.46 -268.25,-12.17 -176.17,-15.86 -257.75,-27.09 -25.36,-3.5 -67.96,-2.48 -96.37,-3.85l-346.29 -28.28c-122.79,-12.5 -276.82,-4.51 -400.77,-12.9l-1105.63 -58.08c-500.83,-25.69 -1011.63,-34.06 -1514.82,-59.64 -283.27,-14.4 -2031.25,-31.58 -2191.84,-16.4 -273.42,25.84 -708.47,32.17 -916.43,50.69l-526.87 48.7c-253.35,8.92 -135.97,28.61 -353.59,36.47 -218.36,7.88 -1235.3,164.25 -1481.21,210.9l-631.99 110.31c-62.01,10.78 -70.11,21.65 -141.92,32.47l-462.72 90.84c-94.97,24.43 -197.18,38.51 -299.16,60.76 -100.28,21.87 -205.61,43.22 -302.67,66.64 -226.14,54.57 -403.07,81.42 -599.89,128.92 -60.31,14.56 -75.35,21.69 -142.61,33.01 -214.22,36.04 -246.14,55.91 -455.54,95.7l-819.53 169.79c-27.49,7.4 -37.27,9.31 -80.66,10.78l0 7123.36 443.8 -122.88c1202.45,-313.52 2014.25,-493.69 3325.42,-651.71 190.49,-22.96 365.05,-29.11 555.64,-50.42 300.18,-33.56 822.22,-50.1 1139.44,-64.7 637.94,-29.36 1193.79,-10.8 1820.73,16.36l1075.77 102.16c168.78,25.43 356.09,42.92 526.12,68.06 469.15,69.38 1021.39,156.94 1468.86,251l1876.31 389.79c90.44,20.51 3540.27,792.89 3661.4,835.01 103.23,6.17 562.65,99.64 742.02,124.33 153.56,21.15 282.86,51.21 460.2,74.42l924.39 131.03c103.79,13.55 204.17,27.18 319.06,39.53 238.88,25.68 429.1,57.37 625.9,75.07 226.8,20.4 453.25,39.11 672.76,58.01 352.01,30.31 1084.7,42.45 1454.71,38.97l-42.39 -15.21c-531.99,-12.21 -1056.26,-44.91 -1574.58,-97.82l-789.47 -99.24c-307.05,-41.48 -598.5,-98.63 -896.32,-146.56 -106.96,-17.21 -196.25,-38.58 -288.94,-56.79l-1423.07 -287.48c-191.23,-38.61 -367.28,-84.57 -570.23,-121.09 -92.6,-16.67 -190.56,-44.14 -279.67,-62.41l-3584.41 -837.84c-616.9,-163.91 -2230.79,-520.06 -2820.85,-612.15 -220.12,-34.35 -391.32,-61.66 -599.51,-93.39 -899.35,-137.1 -1794.7,-186.59 -2734.44,-184.73 -429.5,0.85 -679.9,23.69 -1075.07,41.89 -69.18,3.19 -110.26,8.7 -170.4,12.08 -507.99,28.48 -1615.28,141.79 -2091.44,230.18 -91.42,16.97 -200.28,38.74 -288.83,57 -89.24,18.39 -192.21,48.04 -283.91,57.77 2.68,-1.73 6.3,-3.97 8.27,-5.07 1.94,-1.07 5.84,-3.64 8.26,-4.92 2.36,-1.24 5.73,-3.28 8.4,-4.58l174.45 -59.81c861.93,-269.9 1691.37,-362.28 2637.42,-446.26 351.5,-31.2 744.24,-55.32 1115.37,-59.04 71.82,-37.17 288.07,-18.09 373.66,-24.07 123.17,-8.6 277.84,-4.21 404.3,-3.54 498.45,2.62 1641.76,-7.44 2094.6,39.59 28.62,2.97 68.1,2.98 97.96,3.51 72.04,1.29 128.18,5.57 184.93,9.17 120.73,7.66 237.08,17.6 359.4,28.43l722.54 60.85c56.94,8.16 118.71,13.89 179.08,19.06l1138.9 121.53c62.85,16.19 562.54,64.24 761.07,97.13 161.38,26.74 360.1,38.13 526.55,62.85 43.32,6.43 143.61,9.15 174.37,16.04 91.52,20.51 -8.77,11.27 161.44,30.51 57.71,6.52 108.22,13.92 161.46,21.85l1373.54 165.7c223.01,13.39 363.5,35.95 540.36,51.12l905.33 70.41c242.97,17.76 516.4,31.71 748.27,44.06 258.02,13.74 497.83,19.62 762.17,32.82 1015.42,50.7 2050.17,92.11 3126.69,91.53 272.74,-0.15 551.94,-8.34 805.74,-11.48 353.04,-4.37 1124.77,-63.39 1461.89,-107.11l519.53 -57.51c61.08,-12 65.06,-20.72 144.81,-27.92 243.18,-21.97 444.09,-56.33 679.63,-93.51l961.84 -167.56c110.96,-18.73 198.71,-44.42 303.47,-63.16 315.12,-56.34 623.52,-127.78 927.3,-189.64l1532.62 -326.01c106.97,-22.15 573.85,-114.73 627.35,-115.87l0 -7166.07 -29.71 8.43c-12.57,53.02 -316.02,120.52 -401.83,142.33 -623.16,158.39 -1662.87,419.75 -2307.95,520.24l-1018.19 140.73c-394.74,49.18 -740.03,63.24 -1120.18,91.55 -1020.34,75.99 -2485,51.3 -3487.24,-81.09 -187,-24.7 -354.95,-37.31 -532.03,-65.58 -165.67,-26.46 -332.34,-49.41 -499.91,-76.18 -555.96,-88.83 -1385.33,-247.91 -1929.97,-367.33l-4600.99 -1028.65c-204.22,-43.32 -1077.64,-190.93 -1229.67,-207.11l-323.68 -46.01c-264.59,-46.18 -667.45,-91.61 -943.92,-132.28 -210.04,-30.9 -457.05,-45.14 -668.34,-70.65 -267.45,-32.29 -516.91,-39.56 -681.7,-59.52 -284.75,-34.5 -959.09,-42.84 -1302.29,-42.57 -23.53,0.02 -80.71,-1.52 -100.32,0.08 -51.62,4.19 -50.26,-7.1 -51.97,19.61z"/>
  <path class="fil1" d="M-0 11186.1l0 1076.17 28291.96 0 0 -1148.06c-119.05,4.2 -690.35,126.16 -820.88,158.48l-605.3 127.12c-68.03,13.58 -107.16,28.39 -188.33,40.86 -77.22,11.85 -124.2,30.15 -199.1,41.97l-419.08 74.14c-227.4,45.5 -581.17,83.69 -855.13,128.69l-1489.7 149.15c-140.75,17.21 -444.31,25.17 -600.28,26.35 -336.27,2.54 -693.47,10.98 -1046.43,9.96 -341.75,-0.99 -682.19,-11.68 -1017.6,-21.21l42.39 15.21c-370.01,3.47 -1102.69,-8.66 -1454.71,-38.97 -219.5,-18.91 -445.96,-37.61 -672.76,-58.01 -196.8,-17.71 -387.01,-49.39 -625.9,-75.07 -114.89,-12.35 -215.27,-25.98 -319.06,-39.53l-924.39 -131.03c-177.34,-23.21 -306.64,-53.27 -460.2,-74.42 -179.37,-24.69 -638.79,-118.16 -742.02,-124.33 -36.98,16.3 -441.64,-33.22 -520.37,-40.52 -376.23,-34.9 -1203.35,-116.35 -1543.14,-175.79l-955.39 -172.18c-303.95,-61.21 -616.24,-121.1 -924.01,-182.48 -75.01,-14.96 -170.94,-28.04 -241.41,-43.49 -85.6,-18.77 -146.71,-26.47 -238.89,-44.44 -311.35,-60.68 -1699.03,-278.7 -1953.65,-306.89 -163.04,-18.05 -338.69,-44.31 -501.58,-66.58l-520.25 -56.58c-179.49,-20.47 -908.98,-86.06 -1053.74,-88.81 -404.9,-7.69 -769.2,-39.52 -1186.29,-18.88l-568.01 20.77c-255.89,1.99 -855.96,46.88 -1132.59,66.45 -640.48,45.3 -1371.61,153.06 -1984.46,287.57 -485.24,106.5 -1254.69,313.62 -1729.63,447.75l-840.08 236.63z"/>
  <path class="fil2" d="M-0 1113.64c131.89,-18.19 264.92,-45.72 395.3,-72.31 124.88,-25.46 254.6,-51.85 386.93,-83.11 1291.39,-305.07 2850.11,-531.29 4239.51,-586.45 521.24,-20.69 1016.98,-1.01 1527.85,-1.12 84.87,-0.01 169.78,-0.24 254.63,-0.21 94.29,0.03 182.63,12.54 257.85,12.68 1.72,-26.71 0.35,-15.42 51.97,-19.61 19.61,-1.6 76.78,-0.06 100.32,-0.08 343.2,-0.27 1017.54,8.07 1302.29,42.57 164.79,19.97 414.24,27.23 681.7,59.52 211.3,25.51 458.31,39.76 668.34,70.65 276.47,40.67 679.33,86.11 943.92,132.28l323.68 46.01c152.04,16.17 1025.46,163.79 1229.67,207.11 16.6,-18.34 36.01,-19.57 123.76,-9.73l403.31 41.85c171.33,19.46 344.23,37.38 519.59,51.37 192.72,15.38 842.89,91.46 1017.68,125.64 149.18,29.17 336.94,54.08 479.04,82.37 146.37,29.14 309.16,59.82 462.77,89.37 321.21,61.8 624.57,124.16 934.88,183.84 312.8,60.15 640.01,110.57 950.06,165.84 327.24,58.34 661.51,99.45 989.94,154.31l994.27 137.21c177.04,17.63 350.36,42.14 521.32,56.72 168.05,14.33 360.09,37.99 527.77,52.74 254.78,22.4 860.08,56.11 1128.66,56.69 202,0.44 406.58,1.82 608.36,-0.66 184.38,-2.27 393.74,-21.56 579.44,-25.4 372.77,-7.71 753.81,-41.56 1105.4,-68.63 361.94,-27.87 713.06,-65.03 1043.6,-114.9 1053.87,-158.99 2099.42,-462.83 3089.59,-740.4 142.03,-39.82 286.27,-89.18 416.4,-123.7l2.46 609.44 29.71 -8.43 0 -1636.83 -28291.96 -0.32 0 1113.64z"/>
  <path class="fil3" d="M28291.96 10494.87l0 -1270.92c-72.51,3.18 -1093.5,245.11 -1197.83,267.29l-620.05 123.95c-118.04,18.6 -214,37.05 -319.27,56.83 -311.29,58.5 -721.86,106.57 -987.12,155.33 -475.87,87.47 -2223.04,317.46 -2732.21,335.42 -139.1,4.91 -228.72,21.57 -368.09,26.31 -262.86,8.93 -528.95,36.25 -763.12,38.01 -399.42,2.99 -779.15,15.1 -1202.82,14.19 -517.59,-1.12 -1059.06,-27.59 -1572.89,-41.69l-1157.63 -46.44c-68.46,-3.84 -130.38,-4.32 -198.69,-5.02 -83.21,-0.86 -95.42,-12.9 -182.23,-14.47 -322.68,-5.85 -775.44,-42.59 -1132.48,-56.79 -365.69,-14.54 -1422.94,-122.84 -1775.88,-169.22 -361.63,-47.52 -684.88,-106.98 -998.98,-143.92 -195.98,-23.05 -432.09,-78.23 -660.67,-101.3l-231.32 -38.77c-129.43,-26.69 -292.19,-46.72 -432.07,-60.3l-651.45 -99.18c-86.37,-8.57 -271.48,-23.99 -358.24,-38.49 -234.39,-39.16 -496.58,-56.69 -679.36,-86.11l-1425.57 -130.25c-132.53,-6.67 -262.01,-7.8 -377.83,-23.71l-556.74 -32.72c-84.56,-2.01 -110.67,-13.34 -183.51,-15.57 -394.07,-12.05 -761.44,-45.99 -1146.11,-53.84 -130,-2.66 -252.69,-15.45 -369.07,-21.63 -106.14,-5.64 -309.03,12.32 -390.59,-0.38 57.38,-7.56 148.8,-7.76 209.1,-6.62 135.67,2.56 19.82,11.19 173.25,33.99l1113.35 105.47c282.79,16.77 977.98,90.36 1288.88,123.51l1248.89 157.49c105.64,20.63 248.48,35.35 359.57,51.21 55.36,7.91 95.82,19.82 157.58,29.64l3497.77 619.95c54.38,11.05 111.3,17.75 169.95,28.69 157.38,29.34 284.76,66.58 490.31,97.58l1653.26 309.01c114.96,21.33 226.11,38.98 332.36,57.91 400.02,71.24 960.55,169.14 1353.64,223.52 125.67,17.39 229.55,38.77 356.09,53.26l522.78 71.39c69.03,19.74 430.12,56.4 524.11,68.67l374.03 42.67c112.19,13.43 224.15,24.55 363.61,37.89 728.5,69.71 1236.73,102.94 1990.29,101.73 845.31,-1.36 867.2,-22.47 1599.78,-70.42 387.03,-25.33 736.31,-65.07 1108.55,-112.4 34.16,-4.35 54.23,-6.79 82.83,-9.99l62.61 -8.54c3.41,-0.8 6.93,-2.01 10.07,-2.86 94.29,-25.57 97.04,-12.35 205.84,-21.12 68.65,-5.53 113.54,-17.02 171.81,-24.53 67.82,-8.75 117.73,-13.62 177.99,-22.83l1030.35 -159.84c109.91,-18.35 216.42,-40.54 325.02,-58.64 130.47,-21.74 236.22,-36.79 351.28,-56.7 213.77,-36.99 465.55,-75.81 677.37,-116.52 115.19,-22.14 210.6,-39.1 336.62,-56.64 112.7,-15.68 233.55,-50.72 352.87,-52.51z"/>
  <path class="fil4" d="M-0 1782.88l0 1260.38c67.62,-7.97 229.85,-47.94 309.42,-66.5 232.53,-54.23 674.68,-161.55 893.64,-200.82 109.67,-19.66 206.07,-50.34 301.39,-65.13 120.18,-18.65 198.31,-33.91 312.68,-55.21 213.68,-39.79 406.88,-73.66 635.01,-107.99l821.59 -131.28c54.24,-11.88 106.35,-14.66 158.53,-23.05l657.79 -94.07c271.57,-49.48 1064.86,-117.24 1191.25,-139.77 93.89,-16.74 781.62,-67.74 899.89,-73.64 117.86,-5.87 240.34,-10.54 368.7,-17.81 462.37,-26.18 1878.61,-47.28 2372.47,-15.55 245.38,15.76 513.51,9.93 767.16,24.37 252.66,14.37 504.52,16.32 764.62,28.82 243.3,11.68 505.52,32.11 749.8,35.06 40.21,0.48 67.31,-0.14 104.84,4.71l644.78 37.04c106.77,4.04 250.52,17.34 368.04,24l743.5 45.76 1023.77 109.66 1313.63 194.21c61.29,9.21 115.87,13.92 173.07,25.04 315.1,61.29 800.19,113.36 1118.33,174.06 56.74,10.83 119.1,13.72 175.88,22.68 50.7,8 111.28,16.09 165.53,21.86 126.45,13.43 213.55,34.06 336.82,44.79l1381.44 149.03c119.68,8.6 231.08,25.26 356.79,31.76 223.34,11.55 526.39,51.85 708.44,57.61 334.13,10.58 755.21,60.33 1103.42,66.01 288.04,4.7 761.88,45.37 1118.16,56.57 105.82,3.33 86.18,17.85 167.75,17.81 62.82,-0.02 126.48,-6.54 194.23,-6.54l0.51 0.39c-52.66,-0.72 -183.09,-33.23 -341.71,-47.87 -131.87,-12.17 -253.16,-22.34 -376.23,-33.26 -908.09,-80.56 -1647.12,-150.56 -2554.01,-257.19l-359.57 -44.39c-228.51,-36.68 -449.36,-67.53 -686.37,-101.84 -307.72,-44.54 -824.25,-138.98 -1158.89,-198.58 -58.65,-10.45 -118.74,-22.06 -166.6,-28.63 -454.37,-62.31 -1181.29,-223.43 -1647.66,-299.06l-482.46 -94.13c-149.7,-18.88 -339.65,-67.04 -489.02,-92.02l-2295.56 -422.51c-160.41,-27.48 -540.7,-87.11 -673.15,-118.01l-2070.84 -296.56 -1462.26 -143.41c-409.04,-20.98 -813.92,-32.13 -1230.44,-31.53 -137.73,0.19 -288.46,-1.97 -424.8,1.85 -73.55,2.06 -104.01,12.01 -182.82,13.44l-610.37 23.88c-480.37,46.24 -974.59,82.97 -1455.44,144.54 -480.75,61.56 -1477.95,194.06 -1896.95,275.39l-1160.42 201.36c-85.17,21.46 -248.19,42.07 -340.26,55.45 -110.1,15.99 -219.58,42.83 -337.07,58.81z"/>
  <path class="fil5" d="M-0 1158.67l0 624.22c117.5,-15.97 226.97,-42.82 337.07,-58.81 92.06,-13.37 255.08,-33.98 340.26,-55.45l1160.42 -201.36c419.01,-81.33 1416.2,-213.83 1896.95,-275.39 480.85,-61.58 975.07,-98.31 1455.44,-144.54l610.37 -23.88c78.81,-1.43 109.27,-11.38 182.82,-13.44 136.33,-3.82 287.06,-1.65 424.8,-1.85 416.51,-0.61 821.4,10.55 1230.44,31.53l1462.26 143.41 2070.84 296.56c132.45,30.89 512.74,90.53 673.15,118.01l2295.56 422.51c149.36,24.98 339.32,73.13 489.02,92.02l482.46 94.13c466.37,75.64 1193.28,236.75 1647.66,299.06 47.86,6.57 107.96,18.18 166.6,28.63 334.64,59.6 851.17,154.04 1158.89,198.58 237.01,34.3 457.86,65.15 686.37,101.84l359.57 44.39c906.89,106.63 1645.92,176.63 2554.01,257.19 123.07,10.92 244.36,21.09 376.23,33.26 158.62,14.64 289.05,47.16 341.71,47.87 426.19,12.02 822.08,-33.84 1220.04,-53.86 377.7,-19 769.83,-70.9 1119.87,-110.8 360.2,-41.05 710.99,-96.75 1042.07,-166.13 181.17,-37.97 759.72,-192.52 890.52,-259.07l-566.57 111.2c-481.18,89.49 -786.93,109.66 -1263.92,164.28 -91.35,10.46 -235.95,16.63 -334.49,29.76 -109.91,14.65 -227.69,14.96 -341.13,27.6 -432.47,48.19 -951.9,61.61 -1422.54,65.6 -300.46,2.55 -818.98,5.54 -1113.8,-22.32 -85.96,-8.12 -267.14,-17.61 -357.87,-20.15 -64.39,-1.81 -92.78,-10.98 -154.55,-14.62l-504.41 -47.76c-898.66,-97.96 -1565.26,-232.92 -2409.87,-404.45 -87.21,-17.71 -183.58,-40.48 -277.98,-62.54 -89.91,-21.01 -178.85,-43.1 -277.53,-64.35 -391.95,-84.4 -961.98,-222.09 -1373.47,-327.74 -1178.87,-302.68 -2414.2,-577.53 -3621.18,-838.08 -197.12,-42.55 -384.37,-87.25 -572.09,-120.97l-570.69 -119.92c-664.27,-136.59 -1087.42,-210.6 -1767.56,-327.36 -442.34,-75.94 -1149.25,-154.53 -1613.25,-183.96 -110.07,-6.98 -250.6,-9.36 -347.59,-21.32 -106.82,-13.17 -249.18,-6.19 -358.8,-15.54 -111.36,-9.5 -244.49,-10.11 -364.05,-6.47 -75.22,-0.14 -163.56,-12.65 -257.85,-12.68 -84.84,-0.03 -169.76,0.19 -254.63,0.21 -510.87,0.11 -1006.61,-19.58 -1527.85,1.12 -1389.39,55.16 -2948.11,281.38 -4239.51,586.45 -132.33,31.26 -262.05,57.64 -386.93,83.11 -130.38,26.59 -263.41,54.12 -395.3,72.31z"/>
  <path class="fil5" d="M5531.15 9069.47c-371.13,3.72 -763.87,27.84 -1115.37,59.04 -946.04,83.98 -1775.49,176.36 -2637.42,446.26l-174.45 59.81c-2.67,1.3 -6.04,3.34 -8.4,4.58 -2.42,1.28 -6.32,3.85 -8.26,4.92 -1.97,1.09 -5.58,3.34 -8.27,5.07 91.69,-9.73 194.66,-39.38 283.91,-57.77 88.55,-18.25 197.41,-40.03 288.83,-57 476.16,-88.39 1583.45,-201.69 2091.44,-230.18 60.14,-3.38 101.22,-8.89 170.4,-12.08 395.17,-18.2 645.57,-41.04 1075.07,-41.89 939.75,-1.87 1835.09,47.63 2734.44,184.73 208.19,31.74 379.39,59.04 599.51,93.39 590.07,92.09 2203.95,448.24 2820.85,612.15l3584.41 837.84c89.11,18.27 187.07,45.74 279.67,62.41 202.95,36.52 379,82.48 570.23,121.09l1423.07 287.48c92.69,18.21 181.98,39.58 288.94,56.79 297.82,47.93 589.27,105.08 896.32,146.56l789.47 99.24c518.32,52.9 1042.59,85.61 1574.58,97.82 335.41,9.53 675.85,20.22 1017.6,21.21 352.95,1.01 710.15,-7.42 1046.43,-9.96 155.97,-1.18 459.52,-9.14 600.28,-26.35l1489.7 -149.15c273.96,-45 627.74,-83.2 855.13,-128.69l419.08 -74.14c74.9,-11.82 121.88,-30.12 199.1,-41.97 81.17,-12.46 120.3,-27.27 188.33,-40.86l605.3 -127.12c130.54,-32.32 701.83,-154.29 820.88,-158.48l0 -619.33c-119.32,1.79 -240.17,36.82 -352.87,52.51 -126.03,17.54 -221.44,34.5 -336.62,56.64 -211.82,40.71 -463.61,79.53 -677.37,116.52 -115.06,19.91 -220.81,34.96 -351.28,56.7 -108.6,18.1 -215.11,40.29 -325.02,58.64l-1030.35 159.84c-60.26,9.21 -110.17,14.08 -177.99,22.83 -58.27,7.52 -103.16,19 -171.81,24.53 -108.8,8.77 -111.56,-4.45 -205.84,21.12 -3.14,0.85 -6.66,2.06 -10.07,2.86l-62.61 8.54c-28.59,3.19 -48.67,5.64 -82.83,9.99 -372.24,47.34 -721.52,87.07 -1108.55,112.4 -732.58,47.95 -754.47,69.06 -1599.78,70.42 -753.57,1.22 -1261.79,-32.01 -1990.29,-101.73 -139.46,-13.34 -251.42,-24.46 -363.61,-37.89l-374.03 -42.67c-94,-12.26 -455.08,-48.93 -524.11,-68.67l-522.78 -71.39c-126.55,-14.49 -230.42,-35.87 -356.09,-53.26 -393.1,-54.38 -953.62,-152.28 -1353.64,-223.52 -106.26,-18.93 -217.4,-36.58 -332.36,-57.91l-1653.26 -309.01c-205.55,-31 -332.92,-68.24 -490.31,-97.58 -58.65,-10.94 -115.57,-17.64 -169.95,-28.69l-3497.77 -619.95c-61.76,-9.82 -102.22,-21.74 -157.58,-29.64 -111.09,-15.86 -253.93,-30.58 -359.57,-51.21l-1248.89 -157.49c-310.89,-33.14 -1006.08,-106.73 -1288.88,-123.51l-1113.35 -105.47c-153.42,-22.79 -37.57,-31.43 -173.25,-33.99 -60.3,-1.14 -151.72,-0.94 -209.1,6.62l-88.97 8z"/>
  <path class="fil6" d="M-0 10550.9l0 635.2 840.08 -236.63c474.93,-134.14 1244.39,-341.25 1729.63,-447.75 612.85,-134.51 1343.98,-242.26 1984.46,-287.57 276.62,-19.57 876.69,-64.46 1132.59,-66.45l568.01 -20.77c417.09,-20.64 781.39,11.19 1186.29,18.88 144.76,2.75 874.25,68.34 1053.74,88.81l520.25 56.58c162.9,22.27 338.54,48.53 501.58,66.58 254.63,28.19 1642.3,246.21 1953.65,306.89 92.18,17.97 153.29,25.67 238.89,44.44 70.47,15.45 166.4,28.52 241.41,43.49 307.77,61.38 620.06,121.27 924.01,182.48l955.39 172.18c339.79,59.44 1166.91,140.89 1543.14,175.79 78.73,7.31 483.39,56.82 520.37,40.52 -121.13,-42.12 -3570.96,-814.5 -3661.4,-835.01l-1876.31 -389.79c-447.47,-94.06 -999.71,-181.62 -1468.86,-251 -170.03,-25.14 -357.34,-42.62 -526.12,-68.06l-1075.77 -102.16c-626.94,-27.16 -1182.79,-45.73 -1820.73,-16.36 -317.22,14.6 -839.26,31.14 -1139.44,64.7 -190.59,21.31 -365.15,27.46 -555.64,50.42 -1311.16,158.01 -2122.97,338.19 -3325.42,651.71l-443.8 122.88z"/>
  <path class="fil7" d="M28262.25 1690.59l-2.46 -609.44c-130.12,34.52 -274.36,83.88 -416.4,123.7 -990.17,277.57 -2035.72,581.4 -3089.59,740.4 -330.54,49.87 -681.66,87.03 -1043.6,114.9 -351.58,27.07 -732.62,60.92 -1105.4,68.63 -185.7,3.84 -395.06,23.13 -579.44,25.4 -201.78,2.48 -406.36,1.1 -608.36,0.66 -268.58,-0.58 -873.88,-34.29 -1128.66,-56.69 -167.68,-14.75 -359.72,-38.41 -527.77,-52.74 -170.95,-14.58 -344.27,-39.09 -521.32,-56.72l-994.27 -137.21c-328.43,-54.86 -662.7,-95.98 -989.94,-154.31 -310.05,-55.27 -637.27,-105.69 -950.06,-165.84 -310.31,-59.68 -613.68,-122.04 -934.88,-183.84 -153.61,-29.55 -316.4,-60.24 -462.77,-89.37 -142.1,-28.29 -329.86,-53.2 -479.04,-82.37 -174.79,-34.18 -824.96,-110.26 -1017.68,-125.64 -175.36,-13.99 -348.26,-31.91 -519.59,-51.37l-403.31 -41.85c-87.75,-9.84 -107.16,-8.61 -123.76,9.73l4600.99 1028.65c544.63,119.42 1374.01,278.5 1929.97,367.33 167.57,26.77 334.23,49.73 499.91,76.18 177.08,28.28 345.03,40.89 532.03,65.58 1002.24,132.38 2466.91,157.08 3487.24,81.09 380.15,-28.31 725.44,-42.37 1120.18,-91.55l1018.19 -140.73c645.09,-100.49 1684.8,-361.85 2307.95,-520.24 85.82,-21.81 389.26,-89.31 401.83,-142.33z"/>
  <path class="fil8" d="M5531.15 9069.47l88.97 -8c81.56,12.7 284.46,-5.25 390.59,0.38 116.38,6.18 239.07,18.98 369.07,21.63 384.66,7.85 752.04,41.79 1146.11,53.84 72.84,2.23 98.94,13.56 183.51,15.57l556.74 32.72c115.83,15.91 245.3,17.04 377.83,23.71l1425.57 130.25c182.78,29.42 444.97,46.95 679.36,86.11 86.76,14.5 271.87,29.92 358.24,38.49l651.45 99.18c139.88,13.58 302.64,33.61 432.07,60.3l231.32 38.77c228.58,23.07 464.69,78.25 660.67,101.3 314.1,36.94 637.35,96.4 998.98,143.92 352.94,46.38 1410.2,154.68 1775.88,169.22 357.04,14.19 809.8,50.94 1132.48,56.79 86.81,1.58 99.03,13.62 182.23,14.47 68.31,0.71 130.23,1.18 198.69,5.02l1157.63 46.44c513.83,14.1 1055.3,40.57 1572.89,41.69 423.68,0.91 803.4,-11.19 1202.82,-14.19 234.17,-1.76 500.26,-29.08 763.12,-38.01 139.38,-4.74 229,-21.4 368.09,-26.31 509.18,-17.97 2256.34,-247.95 2732.21,-335.42 265.27,-48.76 675.83,-96.83 987.12,-155.33 105.27,-19.78 201.23,-38.22 319.27,-56.83l620.05 -123.95c104.32,-22.18 1125.31,-264.11 1197.83,-267.29l0 -375.72c-53.5,1.15 -520.38,93.72 -627.35,115.87l-1532.62 326.01c-303.78,61.86 -612.18,133.3 -927.3,189.64 -104.76,18.73 -192.51,44.42 -303.47,63.16l-961.84 167.56c-235.55,37.18 -436.45,71.54 -679.63,93.51 -79.75,7.2 -83.73,15.92 -144.81,27.92l-519.53 57.51c-337.12,43.72 -1108.85,102.74 -1461.89,107.11 -253.81,3.14 -533,11.34 -805.74,11.48 -1076.52,0.58 -2111.28,-40.83 -3126.69,-91.53 -264.34,-13.19 -504.15,-19.07 -762.17,-32.82 -231.87,-12.35 -505.29,-26.3 -748.27,-44.06l-905.33 -70.41c-176.86,-15.17 -317.35,-37.73 -540.36,-51.12l-1373.54 -165.7c-53.24,-7.93 -103.75,-15.32 -161.46,-21.85 -170.21,-19.23 -69.92,-10 -161.44,-30.51 -30.76,-6.89 -131.05,-9.61 -174.37,-16.04 -166.44,-24.72 -365.17,-36.12 -526.55,-62.85 -198.53,-32.89 -698.22,-80.93 -761.07,-97.13l-1138.9 -121.53c-60.38,-5.17 -122.15,-10.9 -179.08,-19.06l-722.54 -60.85c-122.32,-10.83 -238.67,-20.77 -359.4,-28.43 -56.75,-3.61 -112.88,-7.89 -184.93,-9.17 -29.87,-0.53 -69.35,-0.54 -97.96,-3.51 -452.84,-47.03 -1596.15,-36.97 -2094.6,-39.59 -126.47,-0.67 -281.13,-5.06 -404.3,3.54 -85.59,5.98 -301.84,-13.11 -373.66,24.07z"/>
  <path class="fil8" d="M-0 3043.26l0 384.28c43.38,-1.47 53.17,-3.38 80.66,-10.78l819.53 -169.79c209.4,-39.8 241.32,-59.66 455.54,-95.7 67.25,-11.32 82.29,-18.45 142.61,-33.01 196.82,-47.5 373.75,-74.35 599.89,-128.92 97.05,-23.42 202.39,-44.77 302.67,-66.64 101.98,-22.25 204.19,-36.33 299.16,-60.76l462.72 -90.84c71.82,-10.82 79.91,-21.69 141.92,-32.47l631.99 -110.31c245.91,-46.65 1262.86,-203.02 1481.21,-210.9 217.62,-7.86 100.25,-27.55 353.59,-36.47l526.87 -48.7c207.96,-18.52 643.01,-24.85 916.43,-50.69 160.59,-15.18 1908.57,2 2191.84,16.4 503.19,25.58 1013.99,33.96 1514.82,59.64l1105.63 58.08c123.95,8.39 277.98,0.4 400.77,12.9l346.29 28.28c28.42,1.36 71.01,0.35 96.37,3.85 81.58,11.23 -10.5,14.92 257.75,27.09 241.89,10.97 482.92,41.76 709.71,62.46 125.45,11.45 252.32,14.28 352.79,30.39l682.62 78.53c303.13,32.84 650.58,90.12 1008.89,130.12 89.92,10.04 228.94,27.46 320.76,44.72l1425.94 176.79c24.55,3.31 68.78,6.88 86.47,8.47 80.12,7.19 106.12,13.26 177.83,20.53 60.33,6.12 116.27,8.15 183.05,13.69 113.91,9.44 263.99,45.54 511.45,54.71 238.95,8.86 489.29,48.96 721.31,55.95 250.18,7.54 477.12,36.65 736.04,42.46 253.97,5.7 504.22,21.79 763.61,25.68 415.58,6.24 811.94,-4.31 1202.41,0.19 65.77,0.76 132.8,4.94 198.05,4.52 31.62,-0.21 68.42,-1.32 100.09,-2.51 8.58,-0.32 47.89,-2.4 54.26,-3.56 42.88,-7.8 16.51,6.87 38.83,-14.19 -67.75,0.01 -131.41,6.52 -194.23,6.54 -81.58,0.03 -61.93,-14.49 -167.75,-17.81 -356.29,-11.2 -830.13,-51.87 -1118.16,-56.57 -348.21,-5.68 -769.29,-55.44 -1103.42,-66.01 -182.05,-5.76 -485.09,-46.06 -708.44,-57.61 -125.71,-6.5 -237.12,-23.15 -356.79,-31.76l-1381.44 -149.03c-123.27,-10.73 -210.37,-31.36 -336.82,-44.79 -54.24,-5.76 -114.82,-13.85 -165.53,-21.86 -56.79,-8.96 -119.14,-11.86 -175.88,-22.68 -318.14,-60.7 -803.23,-112.77 -1118.33,-174.06 -57.19,-11.12 -111.77,-15.83 -173.07,-25.04l-1313.63 -194.21 -1023.77 -109.66 -743.5 -45.76c-117.51,-6.66 -261.27,-19.95 -368.04,-24l-644.78 -37.04c-37.54,-4.86 -64.63,-4.23 -104.84,-4.71 -244.28,-2.95 -506.5,-23.38 -749.8,-35.06 -260.09,-12.5 -511.95,-14.44 -764.62,-28.82 -253.65,-14.43 -521.79,-8.61 -767.16,-24.37 -493.86,-31.72 -1910.1,-10.63 -2372.47,15.55 -128.36,7.27 -250.84,11.94 -368.7,17.81 -118.27,5.9 -806,56.9 -899.89,73.64 -126.39,22.53 -919.68,90.29 -1191.25,139.77l-657.79 94.07c-52.18,8.39 -104.29,11.17 -158.53,23.05l-821.59 131.28c-228.13,34.33 -421.32,68.2 -635.01,107.99 -114.37,21.29 -192.5,36.56 -312.68,55.21 -95.32,14.79 -191.72,45.47 -301.39,65.13 -218.96,39.26 -661.11,146.58 -893.64,200.82 -79.57,18.56 -241.8,58.53 -309.42,66.5z"/>
 </g>
</svg>
