<?xml version="1.0" encoding="UTF-8"?>
<!DOCTYPE svg PUBLIC "-//W3C//DTD SVG 1.1//EN" "http://www.w3.org/Graphics/SVG/1.1/DTD/svg11.dtd">
<!-- Creator: CorelDRAW 2020 (64-Bit) -->
<svg xmlns="http://www.w3.org/2000/svg" xml:space="preserve" width="47.8069mm" height="47.8069mm" version="1.1" style="shape-rendering:geometricPrecision; text-rendering:geometricPrecision; image-rendering:optimizeQuality; fill-rule:evenodd; clip-rule:evenodd"
viewBox="0 0 4780.7 4780.7"
 xmlns:xlink="http://www.w3.org/1999/xlink"
 xmlns:xodm="http://www.corel.com/coreldraw/odm/2003">
 <defs>
  <style type="text/css">
   <![CDATA[
    .fil3 {fill:#FEFEFE}
    .fil0 {fill:#00A2E9}
    .fil2 {fill:#623231}
    .fil1 {fill:#9FD421}
   ]]>
  </style>
 </defs>
 <g id="Layer_x0020_1">
  <metadata id="CorelCorpID_0Corel-Layer"/>
  <g id="_2220582226592">
   <circle class="fil0" cx="2390.35" cy="2390.35" r="2390.35"/>
   <g>
    <g>
     <path class="fil1" d="M2737.34 1967.36l84.66 2.6 0 -397.04c145.45,-33.89 350.28,33.3 538.61,-172.59 8.33,-9.11 4.37,-4.27 12.2,-13.2 111.91,-127.4 151.93,-234.34 151.93,-432.28 -222.81,0 -404.82,-6.96 -536.04,90.5 -122.35,90.89 -230.13,238.7 -242.9,392.1 -24.95,-16.71 -86.24,-118.59 -195.71,-159.88 -101.22,-38.17 -185.1,-34.85 -320.75,-34.85 -1.06,47.26 -14.12,61.57 -5.04,123.51 16.37,111.64 36.43,209.3 121.33,293.6 123.44,122.58 172.63,140.39 391.71,158.62l0 148.91zm-396.73 -665.52c32.57,0 91.84,3.25 147.53,23.45 55.7,20.19 107.81,57.31 146.56,94.77 38.76,37.45 64.17,75.23 79.63,110.57 15.47,35.34 21.01,68.23 23.77,93.8 2.77,25.57 2.77,43.81 2.77,52.93 0,9.12 0,9.12 0,9.12 0,0 0,0 -30.62,-28.66 -30.61,-28.66 -91.84,-85.99 -127.67,-115.95 -35.82,-29.96 -46.24,-32.57 -56.66,-28.01 -10.42,4.56 -20.85,16.29 -23.46,26.71 -2.6,10.42 2.62,19.54 40.23,52.93 37.62,33.38 107.65,91.02 136.96,119.68 29.31,28.66 17.91,28.34 12.21,28.18 -5.7,-0.17 -5.7,-0.17 -16.13,-0.17 -10.42,0 -31.26,0 -64.32,-8.63 -33.06,-8.63 -78.32,-25.9 -110.89,-44.13 -32.57,-18.24 -52.44,-37.46 -73.61,-57.32 -21.17,-19.87 -43.64,-40.39 -63.67,-70.84 -20.03,-30.46 -37.61,-70.84 -50.64,-111.55 -13.03,-40.72 -21.49,-81.75 -23.45,-105.2 -1.95,-23.45 2.6,-29.31 7.81,-33.87 5.21,-4.56 11.08,-7.81 43.65,-7.81zm1113.51 -245.87c-6.28,36.64 -18.28,106.41 -48.29,170.33 -30.01,63.93 -78.03,122.01 -130.15,164.02 -52.11,42.02 -108.3,67.97 -158.54,84.84 -50.25,16.87 -94.55,24.69 -128.42,28.6 -33.86,3.91 -57.32,3.91 -72.31,3.58 -14.97,-0.32 -21.49,-0.98 -10.42,-13.68 11.08,-12.7 39.75,-37.45 85.33,-71.32 45.6,-33.87 108.14,-76.87 143.74,-104.26 35.6,-27.38 44.25,-39.15 41.76,-53.34 -2.48,-14.2 -16.12,-30.83 -28.59,-35.7 -12.47,-4.84 -23.77,2.05 -72.1,38.4 -48.32,36.35 -133.65,102.13 -179.89,139.91 -46.25,37.78 -53.42,47.57 -59.28,46.58 -5.87,-0.97 -10.42,-12.71 -11.4,-33.23 -0.98,-20.5 1.62,-49.82 21.17,-90.86 19.54,-41.03 56.01,-93.8 88.25,-134.51 32.25,-40.72 60.25,-69.37 95.43,-94.12 35.18,-24.76 77.52,-45.6 126.8,-58.12 49.29,-12.51 105.52,-16.68 158.27,-20.3 52.76,-3.61 102.03,-6.64 125.8,-8.3 23.76,-1.66 21.99,-1.94 20.83,-0.32 -1.16,1.63 -1.72,5.15 -7.99,41.8z"/>
     <path class="fil2" d="M2814.18 1916.55l-84.66 -2.6c-66.05,28.43 -104.41,32.38 -150.6,81.49 -15.2,16.16 -37.67,48.4 -48.14,70.4 -24.23,50.92 -10.19,38.63 -64.58,53.95 -114.62,32.29 -202.35,126.33 -202.35,271.79 325.43,0 617.55,-19.07 949.02,-16.2 60.53,0.52 63.06,-6.23 53.37,-53.37 -23.78,-115.64 -95.93,-187.21 -207.94,-216.88 -51.44,-13.63 -10.86,0.41 -54.06,-64.47 -36.95,-55.49 -111.48,-114.09 -190.06,-124.11z"/>
    </g>
    <g>
     <path class="fil3" d="M662.17 2843.83c11.76,50.49 148.29,322.76 187.9,387.83 13.24,21.74 21.05,39.61 32.13,61 13,25.11 22.75,36.73 36.92,64.69l210.38 365.34c31.86,47.71 47.89,80.21 91.47,103.27 23.16,-15.51 34.28,-29 50.81,-50.79 26.38,-34.78 143.92,-142.42 143.92,-186.28 0,-14.37 -65.19,-100.63 -77.48,-117.25l-166.74 -231.19c-29.37,-39.99 -56.91,-78.77 -85.98,-117.22 -28.02,-37.08 -53.1,-72.67 -81.26,-113.47 -137.38,-199.01 -161.68,-261.38 -342.07,-165.93z"/>
     <g>
      <path class="fil3" d="M2270.72 2611.83c59.93,27.36 123.76,58.62 185.64,82.07 61.89,23.45 121.81,39.08 175.87,48.2 54.07,9.12 102.28,11.72 160.25,13.03 57.97,1.3 125.72,1.3 193.46,-1.3 67.74,-2.61 135.49,-7.82 193.94,-11.6 58.46,-3.78 107.64,-6.12 152.84,-1.27 45.2,4.84 86.42,16.89 122.55,30.79 36.14,13.89 67.18,29.64 87.1,45.39 19.92,15.75 28.72,31.5 32.89,49.57 4.17,18.06 3.7,38.45 -3.25,61.38 -6.94,22.93 -20.38,48.41 -38.45,71.81 -18.06,23.39 -40.76,44.7 -67.63,60.68 -26.87,15.98 -57.9,26.64 -97.97,34.05 -40.07,7.41 -89.18,11.58 -134.81,14.83 -45.63,3.24 -87.78,5.55 -136.66,7.64 -48.87,2.08 -104.45,3.94 -168.38,5.79 -63.93,1.85 -136.19,3.7 -203.37,6.02 -67.17,2.31 -129.24,5.09 -181.27,4.32 -52.02,-0.77 -93.99,-5.1 -114.33,-2.05 -20.33,3.05 -19.02,13.48 7.03,18.69 26.06,5.21 76.86,5.21 128.97,4.56 52.11,-0.65 105.53,-1.96 187.6,-3.91 82.08,-1.96 192.81,-4.56 286.61,-7.17 93.8,-2.61 170.66,-5.21 233.84,-11.72 63.19,-6.52 112.69,-16.94 155.03,-32.57 42.34,-15.63 77.52,-36.48 104.87,-63.83 27.36,-27.36 46.91,-61.24 57.98,-95.11 11.07,-33.87 13.68,-67.74 5.86,-92.49 -7.82,-24.75 -26.05,-40.39 -45.92,-53.21 -19.86,-12.83 -41.35,-22.85 -45.84,-32.72 -4.49,-9.88 8.01,-19.6 29.55,-39.29 21.54,-19.69 52.12,-49.33 87.79,-81.99 35.67,-32.66 76.43,-68.33 116.44,-104.21 40.02,-35.88 79.27,-71.98 120.39,-101.1 41.13,-29.12 84.13,-51.27 121.26,-61.69 37.13,-10.43 68.39,-9.12 93.97,-0.38 25.59,8.73 45.48,24.91 43.85,47.59 -1.63,22.67 -24.79,51.86 -48.19,81.74 -23.39,29.88 -47.01,60.45 -89.68,115.29 -42.66,54.84 -104.36,133.93 -163.22,209.31 -58.86,75.37 -114.87,147.02 -165.68,199.78 -50.81,52.76 -96.4,86.64 -155.68,130.94 -59.28,44.29 -132.23,99 -213.66,160.89 -81.42,61.88 -171.31,130.92 -250.78,189.55 -79.47,58.62 -148.51,106.82 -199.32,136.13 -50.81,29.31 -83.37,39.74 -126.36,37.14 -42.99,-2.61 -96.41,-18.25 -198.68,-46.26 -102.26,-28.01 -253.38,-68.39 -369.98,-100.96 -116.6,-32.57 -198.67,-57.32 -259.9,-73.6 -61.23,-16.29 -101.62,-24.1 -134.84,-28.66 -33.22,-4.56 -59.27,-5.87 -108.13,6.51 -48.85,12.37 -120.5,38.43 -160.24,46.25 -39.73,7.81 -47.54,-2.61 -130.92,-117.9 -83.38,-115.3 -242.31,-335.46 -320.48,-448.15 -78.17,-112.69 -75.56,-117.91 -31.92,-151.13 43.64,-33.22 128.32,-94.45 207.79,-143.3 79.47,-48.86 153.72,-85.33 229.28,-108.78 75.56,-23.45 152.43,-33.87 227.99,-36.47 75.56,-2.61 149.81,2.6 223.42,13.68 73.61,11.07 146.56,28 211.05,48.2 64.49,20.19 120.5,43.64 180.43,71z"/>
      <path class="fil3" d="M3666.13 2305.64c1.3,-13.03 -30.68,-3.9 -64.92,18.26 -34.23,22.15 -70.71,57.33 -113.05,98.37 -42.34,41.03 -90.54,87.93 -140.7,137.44 -50.15,49.5 -102.26,101.61 -124.41,127.67 -22.14,26.05 -14.33,26.05 -0.65,25.4 13.68,-0.65 33.22,-1.96 43.64,-5.21 10.42,-3.26 11.73,-8.47 44.95,-41.04 33.22,-32.57 98.35,-92.49 151.11,-143.3 52.77,-50.81 93.15,-92.5 130.64,-130.94 37.49,-38.44 72.09,-73.63 73.39,-86.65z"/>
      <path class="fil3" d="M3293.38 2715c7.18,7.64 41.93,10.42 64.28,7.76 22.35,-2.67 32.3,-10.77 115.45,-89.29 83.16,-78.52 239.51,-227.46 317.45,-301.92 77.95,-74.47 77.48,-74.47 65.2,-77.71 -12.27,-3.25 -36.36,-9.73 -62.54,-3.48 -26.17,6.25 -54.42,25.25 -132.48,99.37 -78.06,74.12 -205.91,203.36 -280.03,274.24 -74.12,70.88 -94.51,83.38 -87.33,91.03z"/>
      <path class="fil3" d="M3397.73 2733.88c12.85,5.67 46.44,14.24 67.86,13.89 21.42,-0.35 30.69,-9.61 86.28,-61.96 55.59,-52.35 157.5,-147.77 225.6,-207.06 68.1,-59.3 102.38,-82.47 135.27,-99.14 32.89,-16.68 64.39,-26.87 91.72,-30.11 27.33,-3.24 50.5,0.46 63.47,-0.93 12.97,-1.39 15.74,-7.87 18.05,-20.84 2.32,-12.98 4.18,-32.43 1.75,-50.15 -2.43,-17.72 -9.15,-33.71 -23.05,-42.04 -13.89,-8.34 -34.97,-9.04 -61.26,-5.68 -26.29,3.36 -57.79,10.78 -91.03,30.12 -33.23,19.34 -68.21,50.6 -153.79,129.7 -85.58,79.1 -221.78,206.03 -293.82,270.89 -72.03,64.85 -79.9,67.63 -67.05,73.31z"/>
     </g>
    </g>
   </g>
  </g>
 </g>
</svg>
