<?xml version="1.0" encoding="UTF-8"?>
<!DOCTYPE svg PUBLIC "-//W3C//DTD SVG 1.1//EN" "http://www.w3.org/Graphics/SVG/1.1/DTD/svg11.dtd">
<!-- Creator: CorelDRAW 2020 (64-Bit) -->
<svg xmlns="http://www.w3.org/2000/svg" xml:space="preserve" width="34.5635mm" height="28.7121mm" version="1.1" style="shape-rendering:geometricPrecision; text-rendering:geometricPrecision; image-rendering:optimizeQuality; fill-rule:evenodd; clip-rule:evenodd"
viewBox="0 0 3721.19 3091.21"
 xmlns:xlink="http://www.w3.org/1999/xlink"
 xmlns:xodm="http://www.corel.com/coreldraw/odm/2003">
 <defs>
  <style type="text/css">
   <![CDATA[
    .fil2 {fill:#FEFEFE}
    .fil1 {fill:#623231}
    .fil0 {fill:#9FD421}
   ]]>
  </style>
 </defs>
 <g id="Layer_x0020_1">
  <metadata id="CorelCorpID_0Corel-Layer"/>
  <g id="_2222497814608">
   <g>
    <path class="fil0" d="M2234.17 1090.21l91.15 2.8 0 -427.46c156.59,-36.49 377.12,35.85 579.88,-185.81 8.97,-9.81 4.7,-4.6 13.13,-14.21 120.48,-137.16 163.57,-252.3 163.57,-465.4 -239.88,0 -435.84,-7.49 -577.11,97.43 -131.72,97.85 -247.76,256.99 -261.51,422.14 -26.86,-17.99 -92.85,-127.68 -210.71,-172.13 -108.98,-41.09 -199.28,-37.52 -345.33,-37.52 -1.14,50.88 -15.2,66.29 -5.43,132.97 17.62,120.19 39.22,225.34 130.63,316.1 132.9,131.97 185.86,151.15 421.72,170.77l0 160.32zm-427.13 -716.51c35.07,0 98.88,3.5 158.83,25.25 59.97,21.74 116.07,61.7 157.79,102.03 41.73,40.32 69.09,80.99 85.73,119.04 16.66,38.05 22.62,73.46 25.59,100.99 2.98,27.53 2.98,47.17 2.98,56.99 0,9.82 0,9.82 0,9.82 0,0 0,0 -32.97,-30.86 -32.96,-30.86 -98.88,-92.58 -137.45,-124.83 -38.56,-32.26 -49.78,-35.07 -61,-30.16 -11.22,4.91 -22.45,17.54 -25.26,28.76 -2.8,11.22 2.82,21.04 43.31,56.99 40.5,35.94 115.9,97.99 147.45,128.85 31.56,30.86 19.28,30.51 13.15,30.34 -6.14,-0.18 -6.14,-0.18 -17.37,-0.18 -11.22,0 -33.66,0 -69.25,-9.29 -35.59,-9.29 -84.32,-27.88 -119.39,-47.51 -35.07,-19.64 -56.46,-40.33 -79.25,-61.71 -22.79,-21.39 -46.98,-43.48 -68.55,-76.27 -21.56,-32.79 -40.49,-76.27 -54.52,-120.1 -14.03,-43.84 -23.14,-88.01 -25.25,-113.26 -2.1,-25.25 2.8,-31.56 8.41,-36.47 5.61,-4.91 11.93,-8.41 46.99,-8.41zm1198.83 -264.71c-6.76,39.45 -19.68,114.56 -51.99,183.38 -32.31,68.83 -84.01,131.36 -140.12,176.59 -56.1,45.24 -116.6,73.18 -170.69,91.34 -54.1,18.16 -101.79,26.58 -138.26,30.79 -36.45,4.21 -61.71,4.21 -77.85,3.85 -16.12,-0.34 -23.14,-1.06 -11.22,-14.73 11.93,-13.67 42.8,-40.32 91.87,-76.78 49.09,-36.47 116.43,-82.76 154.75,-112.25 38.33,-29.48 47.64,-42.15 44.96,-57.43 -2.67,-15.29 -17.36,-33.19 -30.78,-38.44 -13.43,-5.21 -25.59,2.21 -77.62,41.34 -52.02,39.14 -143.89,109.96 -193.67,150.63 -49.79,40.67 -57.51,51.21 -63.82,50.15 -6.32,-1.04 -11.22,-13.68 -12.27,-35.78 -1.06,-22.07 1.74,-53.64 22.79,-97.82 21.04,-44.17 60.3,-100.99 95.01,-144.82 34.72,-43.84 64.87,-74.69 102.74,-101.33 37.88,-26.66 83.46,-49.09 136.52,-62.57 53.07,-13.47 113.61,-17.96 170.4,-21.86 56.8,-3.89 109.85,-7.15 135.44,-8.94 25.58,-1.79 23.67,-2.09 22.43,-0.34 -1.25,1.75 -1.85,5.54 -8.6,45z"/>
    <path class="fil1" d="M2316.89 1035.51l-91.15 -2.8c-71.11,30.61 -112.41,34.86 -162.14,87.73 -16.36,17.4 -40.56,52.11 -51.83,75.79 -26.09,54.82 -10.97,41.59 -69.53,58.08 -123.4,34.76 -217.85,136.01 -217.85,292.62 350.37,0 664.87,-20.53 1021.74,-17.44 65.17,0.56 67.89,-6.71 57.46,-57.46 -25.6,-124.5 -103.28,-201.55 -223.87,-233.5 -55.38,-14.67 -11.69,0.44 -58.2,-69.41 -39.78,-59.74 -120.02,-122.83 -204.62,-133.62z"/>
   </g>
   <path class="fil2" d="M-0 2033.83c12.66,54.36 159.65,347.49 202.3,417.55 14.25,23.41 22.66,42.65 34.59,65.67 14,27.03 24.49,39.54 39.75,69.65l226.5 393.33c34.3,51.37 51.56,86.36 98.48,111.18 24.93,-16.7 36.91,-31.22 54.7,-54.68 28.4,-37.44 154.95,-153.33 154.95,-200.55 0,-15.47 -70.19,-108.34 -83.42,-126.23l-179.52 -248.9c-31.62,-43.05 -61.27,-84.81 -92.57,-126.2 -30.17,-39.92 -57.17,-78.24 -87.49,-122.16 -147.91,-214.26 -174.07,-281.41 -368.28,-178.64z"/>
   <g>
    <path class="fil2" d="M1731.8 1784.05c64.52,29.46 133.24,63.11 199.86,88.36 66.63,25.25 131.14,42.07 189.35,51.89 58.21,9.82 110.12,12.62 172.53,14.03 62.41,1.4 135.35,1.4 208.28,-1.4 72.93,-2.81 145.87,-8.42 208.8,-12.49 62.94,-4.07 115.89,-6.59 164.55,-1.37 48.66,5.21 93.04,18.18 131.94,33.15 38.91,14.95 72.33,31.91 93.77,48.87 21.45,16.96 30.92,33.91 35.41,53.37 4.49,19.44 3.98,41.4 -3.5,66.08 -7.47,24.69 -21.94,52.12 -41.4,77.31 -19.44,25.18 -43.88,48.13 -72.81,65.33 -28.93,17.2 -62.34,28.68 -105.48,36.66 -43.14,7.98 -96.01,12.47 -145.14,15.97 -49.13,3.49 -94.51,5.98 -147.13,8.23 -52.61,2.24 -112.45,4.24 -181.28,6.23 -68.83,1.99 -146.63,3.98 -218.95,6.48 -72.32,2.49 -139.14,5.48 -195.16,4.65 -56.01,-0.83 -101.19,-5.49 -123.09,-2.21 -21.89,3.28 -20.48,14.51 7.57,20.12 28.06,5.61 82.75,5.61 138.85,4.91 56.1,-0.7 113.62,-2.11 201.97,-4.21 88.37,-2.11 207.58,-4.91 308.57,-7.72 100.99,-2.81 183.74,-5.61 251.76,-12.62 68.03,-7.02 121.32,-18.24 166.91,-35.07 45.58,-16.83 83.46,-39.28 112.91,-68.72 29.46,-29.46 50.5,-65.93 62.42,-102.4 11.92,-36.47 14.73,-72.93 6.31,-99.58 -8.42,-26.65 -28.05,-43.48 -49.44,-57.29 -21.38,-13.81 -44.52,-24.6 -49.35,-35.23 -4.83,-10.64 8.62,-21.1 31.81,-42.3 23.19,-21.2 56.11,-53.11 94.52,-88.27 38.4,-35.16 82.29,-73.57 125.36,-112.19 43.09,-38.63 85.34,-77.5 129.61,-108.85 44.28,-31.35 90.58,-55.2 130.55,-66.42 39.98,-11.23 73.63,-9.82 101.17,-0.41 27.55,9.4 48.96,26.82 47.21,51.24 -1.75,24.41 -26.69,55.83 -51.88,88 -25.18,32.17 -50.61,65.08 -96.55,124.12 -45.93,59.04 -112.36,144.19 -175.73,225.35 -63.37,81.15 -123.67,158.29 -178.38,215.09 -54.7,56.8 -103.79,93.28 -167.61,140.97 -63.82,47.68 -142.36,106.59 -230.03,173.22 -87.66,66.62 -184.44,140.95 -270,204.07 -85.56,63.11 -159.89,115 -214.59,146.56 -54.7,31.56 -89.76,42.79 -136.04,39.99 -46.28,-2.81 -103.8,-19.65 -213.9,-49.8 -110.1,-30.16 -272.79,-73.63 -398.33,-108.7 -125.53,-35.07 -213.89,-61.71 -279.81,-79.24 -65.92,-17.54 -109.41,-25.95 -145.17,-30.86 -35.77,-4.91 -63.81,-6.32 -116.42,7.01 -52.59,13.32 -129.73,41.37 -172.52,49.79 -42.77,8.41 -51.18,-2.81 -140.95,-126.93 -89.77,-124.13 -260.88,-361.16 -345.04,-482.49 -84.16,-121.32 -81.35,-126.94 -34.37,-162.71 46.98,-35.77 138.15,-101.69 223.71,-154.28 85.56,-52.6 165.5,-91.87 246.85,-117.12 81.35,-25.25 164.11,-36.47 245.46,-39.26 81.35,-2.81 161.29,2.8 240.54,14.73 79.25,11.92 157.79,30.15 227.22,51.89 69.43,21.74 129.73,46.98 194.26,76.44z"/>
    <path class="fil2" d="M3234.12 1454.41c1.4,-14.03 -33.03,-4.2 -69.89,19.66 -36.85,23.85 -76.13,61.72 -121.71,105.91 -45.58,44.17 -97.48,94.67 -151.48,147.97 -53.99,53.29 -110.1,109.4 -133.94,137.45 -23.84,28.05 -15.43,28.05 -0.7,27.35 14.73,-0.7 35.77,-2.11 46.98,-5.61 11.22,-3.51 12.63,-9.12 48.39,-44.18 35.77,-35.07 105.89,-99.58 162.69,-154.28 56.81,-54.7 100.29,-99.59 140.65,-140.97 40.36,-41.39 77.61,-79.27 79.01,-93.29z"/>
    <path class="fil2" d="M2832.81 1895.13c7.73,8.23 45.14,11.22 69.21,8.35 24.06,-2.87 34.77,-11.6 124.3,-96.13 89.53,-84.54 257.86,-244.89 341.77,-325.05 83.92,-80.18 83.42,-80.18 70.2,-83.66 -13.21,-3.5 -39.15,-10.48 -67.33,-3.75 -28.18,6.73 -58.59,27.18 -142.63,106.98 -84.04,79.8 -221.69,218.94 -301.49,295.25 -79.8,76.31 -101.75,89.77 -94.02,98.01z"/>
    <path class="fil2" d="M2945.16 1915.45c13.83,6.1 50,15.33 73.06,14.95 23.06,-0.38 33.04,-10.35 92.89,-66.71 59.85,-56.36 169.57,-159.09 242.89,-222.93 73.32,-63.84 110.22,-88.79 145.63,-106.74 35.41,-17.96 69.32,-28.93 98.75,-32.42 29.42,-3.49 54.37,0.5 68.33,-1 13.96,-1.5 16.95,-8.47 19.43,-22.44 2.5,-13.97 4.5,-34.91 1.88,-53.99 -2.62,-19.08 -9.85,-36.29 -24.82,-45.26 -14.95,-8.98 -37.65,-9.73 -65.95,-6.12 -28.3,3.62 -62.22,11.61 -98.01,32.43 -35.78,20.82 -73.44,54.48 -165.57,139.64 -92.14,85.16 -238.77,221.82 -316.33,291.65 -77.55,69.82 -86.02,72.81 -72.19,78.93z"/>
   </g>
  </g>
 </g>
</svg>
