<?xml version="1.0" encoding="UTF-8"?>
<!DOCTYPE svg PUBLIC "-//W3C//DTD SVG 1.1//EN" "http://www.w3.org/Graphics/SVG/1.1/DTD/svg11.dtd">
<!-- Creator: CorelDRAW -->
<svg xmlns="http://www.w3.org/2000/svg" xml:space="preserve" width="8.79302in" height="9.19713in" version="1.1" style="shape-rendering:geometricPrecision; text-rendering:geometricPrecision; image-rendering:optimizeQuality; fill-rule:evenodd; clip-rule:evenodd"
viewBox="0 0 1655.58 1731.66"
 xmlns:xlink="http://www.w3.org/1999/xlink"
 xmlns:xodm="http://www.corel.com/coreldraw/odm/2003">
 <defs>
  <style type="text/css">
   <![CDATA[
    .fil0 {fill:#398D25}
    .fil1 {fill:white}
   ]]>
  </style>
 </defs>
 <g id="Layer_x0020_1">
  <metadata id="CorelCorpID_0Corel-Layer"/>
  <path class="fil0" d="M805.34 152.15c-143.73,8.86 -232.16,34.35 -353.6,102.38 -20.22,11.33 -36.68,24.32 -55.08,36.33 -18.03,11.77 -35.44,27.48 -51.29,40.17l-46.96 44.45c-115.14,119.78 -207.74,287.32 -204.39,527.21 2.62,187.99 100.4,386.44 229.68,501.83 16.72,14.93 30.55,27.64 49.28,42.19 302.2,234.8 733.45,200.08 990.2,-67.94 7.26,-7.58 14.35,-15.2 21.77,-23.24 8.36,-9.05 13.11,-15.74 21.18,-25.26 14,-16.52 25.91,-33.56 39.02,-52.4 22.79,-32.72 48.47,-80.96 64.4,-118.47 60.74,-143.06 75.72,-309.95 33.65,-466.15 -13.13,-48.75 -29.68,-91.79 -49.89,-133.05 -21,-42.88 -44.67,-79.24 -69.72,-113.14 -6.45,-8.72 -12.08,-16.99 -19.73,-25.25 -8.61,-9.29 -13.84,-17.37 -21.39,-25.08 -16.48,-16.82 -27.84,-30.51 -45.2,-46.19 -60.91,-55.02 -130.44,-105.28 -222.74,-143.06 -85.49,-34.99 -201.74,-61.95 -309.18,-55.33z"/>
  <path class="fil1" d="M789.15 189.75c-285.58,17.8 -510.39,194.65 -607.68,431.57 -75.75,184.45 -63.98,391.06 25.76,568.37 10.21,20.17 20.8,36.88 31.94,55.03 14.39,23.45 37.28,53.68 55.35,75.1 137.18,162.6 350.99,258.69 576.04,245.55 213.99,-12.49 372.31,-113.46 472.81,-219.86 101.28,-107.23 199.93,-289.72 184.98,-508.67 -8.4,-123.08 -46.47,-234.16 -106.69,-326.4 -40.69,-62.34 -66.78,-90.77 -119.43,-141.38 -7.54,-7.24 -15.35,-12.5 -22.84,-19.12 -7.37,-6.52 -16.03,-13.05 -24.03,-19.45 -43.58,-34.82 -113.44,-72.83 -167.18,-93.61 -86.61,-33.5 -190.73,-53.88 -299.04,-47.13z"/>
  <path class="fil0" d="M393.89 1371.91c4.79,-4.85 15.36,-28.4 19.56,-36 6.34,-11.49 15.75,-24.84 22.63,-34.34 7.35,-10.16 18.53,-21.9 27.01,-29.89 10.92,-10.3 18.52,-16.26 30.95,-26 71.44,-56 203.39,-76.03 314.68,-166.54 5.25,-4.27 12.7,-8.11 13.49,-14.68l-0.35 -170.14c-7.49,-4.85 -46.27,-23.38 -55.65,-24.94 -2.02,-0.34 -23.08,5.83 -32,6.21 -14.01,0.58 -26.77,0.52 -40.21,-1.71 -24.5,-4.06 -41.71,-13.25 -56.94,-25.52 -8.82,-7.11 -41.2,-33 -31.52,-47.22 7.25,-10.65 46.08,-17.26 64.23,-16.5 37.66,1.57 67.91,28.12 87.2,56.27 4.59,6.69 2.62,8.03 9.69,11.27 10.63,4.89 47.81,19.99 55.04,25.57l0.51 -69.51c-6.34,-6.02 -37.06,-18.88 -47.28,-22.8 -13.99,-5.36 -12.65,-3.98 -28.52,-6 -9.93,-1.26 -19.06,-4.44 -27.65,-8.24 -56.41,-24.95 -55.28,-83.36 -51.14,-87.95 17.69,-10.58 66.45,11.07 78.97,19.65 27.18,18.63 37.41,36.56 34.13,68.07l41.2 19.82c1.11,-9.8 0.26,-23.16 0.27,-33.53 0.01,-11.91 2.34,-24.99 -3.78,-31.73 -61.67,-67.93 -8.21,-138.65 12.6,-144.33 22.71,-6.2 77.53,78.36 20.8,142.29 -10.26,11.56 -8.01,7.16 -7.99,27.77 0.01,11.65 -0.41,24.04 0.16,35.59l38.37 -17.77c-12.71,-73.59 102.58,-99.79 113.16,-87.26 4.26,5.05 4.34,60.91 -49.13,86.76 -7.69,3.72 -16.74,6.7 -25.94,8.51 -15.12,2.96 -8.4,-1.88 -28.84,5.67 -15.16,5.6 -35.09,13.69 -47.62,21.26l-0.16 74.9c1.05,-0.24 51.26,-23.22 53.94,-27.03 6.42,-9.09 3.15,-7.86 16.35,-24.16 18.21,-22.49 44.88,-41.94 77.89,-43.14 18.67,-0.68 55.75,5.65 63.63,17.08 10.4,15.09 -38.63,63.69 -85.33,71.7 -13.25,2.27 -24.29,2.75 -38.27,2.35 -8.28,-0.24 -32.29,-4.95 -33.58,-4.76 -7.55,1.11 -48.78,20.84 -54.56,25.24 -0.2,11.66 -1.42,162.46 0.83,167.38 2.38,5.22 24.9,21.39 30.83,25.99 95.54,74.04 206.19,91.18 296.99,152.71 41.91,28.4 78.86,77.77 99.81,124.82 21.07,-12.51 73.35,-73.41 92.07,-98.03 9.84,-12.94 17.59,-23.9 26.56,-37.89 32.15,-50.14 62.14,-108.78 80.08,-174.67 40.45,-148.54 31.44,-301.58 -26.87,-433.63 -24.85,-56.27 -57.93,-113.04 -96.51,-158.35 -21.95,-25.77 -52.57,-58.08 -78.62,-80.24 -66.11,-56.26 -135.23,-97.15 -223.29,-127.59 -208.21,-71.99 -441.78,-28.91 -605.49,89.72 -12.67,9.18 -24.49,17.68 -35.97,27.09 -32.85,26.94 -69.35,63.59 -95.3,96.49 -37.03,46.95 -68.36,95.56 -95.02,159.82 -53.22,128.28 -67.32,289.79 -22.32,433.06 20.28,64.58 47.69,125.04 81.63,173.29 4.53,6.43 8.63,12.47 12.88,18.55 11.55,16.53 29.78,40.35 42.17,53.78 16.98,18.42 46.75,49.36 65.56,63.42z"/>
  <path class="fil0" d="M843.8 1158.68c102.95,66.26 227.42,83.76 298.8,167.39 19.23,22.53 33.46,42.4 48.38,68.57 3.76,6.6 8.89,19.66 13.84,24.65 7.79,-3.63 19.12,-12.97 27.12,-18.81 8.59,-6.27 19.26,-15.96 27.42,-20.56 -1.97,-15.25 -23.08,-48.52 -30.42,-59.23 -47.81,-69.77 -135.42,-110.84 -212.66,-141.09 -56.1,-21.97 -68.41,-24.53 -119.02,-57.8 -7.58,-4.98 -46.87,-34.19 -53.35,-36.65l-0.1 73.53z"/>
  <path class="fil0" d="M407.43 1384.25c12.16,8.06 45.78,36.4 57.25,40.26 6.47,-17.17 30.51,-58.57 42.86,-73.95 31.43,-39.16 51.37,-61.62 103.93,-90.91 33.15,-18.47 71.59,-32.97 107.78,-48.03 28.76,-11.96 82.75,-35.3 102.76,-52.64l0.2 -70.32c-5.24,1.57 -41.72,29.64 -51.96,35.94 -70.3,43.23 -51.36,28.14 -119.56,57.39 -53.95,23.13 -99,40.13 -146.43,75.43 -27.88,20.75 -44.59,37.9 -66.25,67.16 -7.61,10.29 -27.51,44.83 -30.59,59.68z"/>
  <path class="fil0" d="M478.34 1433.29c5.16,5.76 52.88,31.62 63.74,34.81 21.55,-50.93 65.54,-108.38 111.03,-139.85 24.28,-16.8 49.98,-30.68 80.31,-44.05 29.03,-12.8 59.41,-23.55 88.56,-37.3l0.2 -72.8c-5.03,1.38 -17.47,10.12 -23.37,13.57 -24.21,14.17 -48.69,26.32 -74.96,37.45 -61.62,26.12 -122.56,46.93 -170.76,93.07 -25.45,24.36 -64.79,79.33 -74.75,115.11z"/>
  <path class="fil0" d="M843.77 1244.58c35.51,20.43 104.2,36.1 169.55,80.42 29.8,20.21 42.89,35.34 64.99,60.92 12.81,14.83 40.55,56.64 48.05,78.29 9.83,-2.36 56.96,-29.49 63.73,-35.42 -2.81,-17.14 -29.56,-56.81 -39.98,-72.79 -4.7,-7.22 -11.64,-13.98 -17.03,-20.32 -46.27,-54.32 -123.94,-83.02 -190.71,-110.64 -21.36,-8.84 -54.11,-25.63 -74.5,-37.92 -7.45,-4.49 -17.03,-12.26 -24.05,-14.9l-0.06 72.37z"/>
  <path class="fil0" d="M843.8 1533.15c37.39,2.13 156.93,-15.37 184.98,-29.96 -10.67,-20.63 -18.43,-37.45 -31.1,-56.18 -11.47,-16.95 -36.28,-46.11 -52.89,-57.94 -17.82,-12.69 -17.24,-13.66 -40.25,-27.24 -10.11,-5.96 -50.08,-26.58 -60.57,-28.56l-0.16 199.87z"/>
  <path class="fil0" d="M636.89 1505.05c28.09,8.39 55.54,14.67 86.61,19.87 23.09,3.86 75.86,10.53 98.49,8.24 1.48,-62.9 0.37,-134.57 0.1,-198.09 -15.81,4.33 -45.3,19.88 -59.36,27.85 -45.02,25.5 -64.47,45.75 -93.81,84.62 -8.58,11.36 -27.38,42.84 -32.03,57.52z"/>
  <path class="fil0" d="M843.79 1316.43c34.91,17.69 55.24,22.09 92.5,49.62 78.89,58.28 94.34,116.78 108.14,132.22 10.3,-1.99 62.39,-22.2 68.32,-27.51 -50.89,-117.45 -116.6,-145.8 -226.76,-192.35 -10.73,-4.54 -32.86,-16.01 -42.11,-17.85l-0.08 55.87z"/>
  <path class="fil0" d="M556.24 1475c16.94,8.84 45.46,19.44 65.02,25.14 29.2,-49.61 45.49,-82.76 93.49,-120.74 5.6,-4.43 8.03,-6.32 13.5,-10.45 28.99,-21.9 60.18,-35.04 93.56,-50.3l0.39 -55.87 -83.97 35.21c-29.34,12.45 -54.12,25.67 -78.11,41.79 -45.28,30.43 -78.14,76.65 -103.89,135.22z"/>
  <path class="fil1" d="M951.83 511.23c-23.08,4.92 -50.94,39.96 -55.58,67.88 -2.94,17.69 0.63,35.5 8.3,49.7 5.27,9.76 19.23,31.93 30.42,32.1 13.9,0.21 29.44,-18.17 35.57,-25.47 22.71,-27.07 25.87,-62.69 10.23,-93.28 -5.04,-9.86 -18.59,-33.13 -28.94,-30.92z"/>
  <path class="fil1" d="M709.45 508.83c-21.62,13.16 -39.67,57.06 -31.19,86.97 7.73,27.27 40.7,70.96 60.14,59.35 19.37,-11.57 39.76,-53.31 30.43,-87 -8.12,-29.34 -44.64,-68.29 -59.38,-59.33z"/>
  <path class="fil1" d="M827.61 391.61c-21.33,10.59 -42.63,44.29 -39.64,80.88 1.37,16.71 8.45,32.74 15.45,44.62 4.99,8.47 20.55,31.32 33.46,26.92 18.47,-6.3 39.77,-50.38 38.31,-82.1 -1.19,-25.86 -25.95,-81.05 -47.58,-70.32z"/>
  <path class="fil1" d="M1151 641.53c-29.87,-11.36 -76.82,6.45 -94.5,21.33 -23.48,19.76 -44.22,70.29 -31.44,83.79 8.52,9.01 38.69,3.55 50.59,-0.2 16.5,-5.2 29.03,-13.46 38.26,-23.14 10.29,-10.8 42.11,-59.22 37.1,-81.77z"/>
  <path class="fil1" d="M521.61 642.1c-2.12,29.86 29.79,90.26 74.95,104.22 11.57,3.57 43.11,10.34 51.43,-0.19 12.37,-15.67 -10.31,-65.33 -31.85,-83.72 -22.1,-18.86 -76.1,-30.76 -94.52,-20.31z"/>
  <path class="fil1" d="M864.26 958.66c12.74,5.8 25.1,11.79 38.52,18.18 14.52,6.92 31.74,8.4 48.28,3.39 18.75,-5.68 69.75,-32.46 60.66,-53.81 -4.96,-11.67 -53.2,-34.31 -86.09,-24.18 -16.66,5.13 -63.14,32.97 -61.37,56.42z"/>
  <path class="fil1" d="M800.35 957.03c2.57,-22.03 -42.89,-50.31 -59.91,-56.19 -30.7,-10.59 -80.91,10.57 -87.12,22.98 -10.54,21.1 40.3,47.93 58.22,53.86 16.22,5.36 34.21,4.24 49.18,-1.98 13.86,-5.76 26.45,-12.91 39.62,-18.68z"/>
  <path class="fil1" d="M525.8 857.16c-32.94,5.82 -67.9,40.13 -51.82,53.85 16.48,14.06 67.66,21.36 95.12,16.96 16.01,-2.56 29.44,-7.43 42.3,-14.71 19.15,-10.83 19.63,-18.83 2.23,-30.97 -17.94,-12.51 -58.27,-30.35 -87.83,-25.13z"/>
  <path class="fil1" d="M1118.35 858.91c-22.74,3.32 -72.83,20.5 -77.92,37.02 -5.9,19.12 50.59,36.22 78.97,35.35 15.95,-0.49 35.41,-3.76 49.3,-7.87 12.49,-3.7 35.28,-10.19 25.13,-27.71 -6.09,-10.51 -18.71,-21.96 -28.98,-28.01 -13.6,-8.02 -28.19,-11.45 -46.49,-8.77z"/>
  <path class="fil0" d="M1432.65 282.13c-2.68,-0.6 -2.34,-1.25 -1.65,1.32 -2.65,-0.62 -2.22,-1.21 -1.67,1.4 -2.34,-0.56 -1.72,-0.91 -1.35,1.57 -2.39,-0.41 -1.82,-0.85 -1.38,1.61 -2.44,-0.51 -1.71,-0.83 -1.31,1.82 -3.08,1.82 -2.03,0.12 -3.16,4.31 -1.72,0.77 -1.32,-2.87 -1.57,2.69 -1.67,0.99 -1.39,-3.08 -1.5,3.12l-2.55 5.03c-0.44,1.36 -1.21,5.93 -1.31,7.42 -0.31,4.45 0.15,9.57 2.41,13.32 0.28,6.37 0.53,3.21 1.62,4.32 3.26,14.17 21.48,28.24 40.4,28.51 38.57,0.54 62.19,-48.88 24.48,-78.45 -20.16,-15.81 -46.75,-6.63 -51.45,2.03z"/>
  <path class="fil0" d="M1387.65 204.02l-22.77 26.73c-2.59,-0.65 -1.93,-1.01 -1.38,1.69 -2.54,-0.61 -1.91,-0.97 -1.31,1.65 -2.64,-0.69 -1.92,-1.01 -1.34,1.77 -2.47,-0.66 -1.85,-1.01 -1.37,1.57 -1.82,1.09 -0.87,0.05 -2.61,1.88 -2.5,2.63 -0.68,0.1 -2.39,3.48 -2.52,-0.51 -1.88,-0.91 -1.39,1.72 -2.5,-0.56 -1.83,-0.91 -1.3,1.72 -2.6,-0.58 -2.06,-1.02 -1.35,1.59 -2.76,-0.77 -2.09,-1.17 -1.51,1.7 -3.49,1.72 -4,4.16 -9,3.81 -4.71,-0.33 -5.06,-3.15 -10.23,-3.73 0.89,2.67 25.2,25.61 31.3,26.96 -5.1,-12.84 -14.26,-6.34 13.68,-35.77 7.27,7.7 8.16,4.98 6.59,21.39 -0.4,4.21 -0.88,8.66 -0.99,13.91 -0.09,4.29 -0.85,11.09 1.49,14.61 0.68,6.39 5.86,12.72 11.55,15.17 2.17,0.93 0.66,0.65 2.02,0.28 0.5,-1.58 -1.59,-16.91 -1.57,-22.54 0.03,-9.03 0.11,-18.05 0.1,-27.07 10.43,2.91 19.54,7.4 29.15,-0.57 7.67,-6.35 7.97,-19.86 1.81,-29 -4.22,-6.26 -37.07,-35.51 -42.83,-37.63 0.74,9.64 5.03,2.29 5.64,14.68z"/>
  <path class="fil0" d="M985.9 91.73c-6.84,-0.46 -2.35,-0.32 -3.01,1.41 -3.93,-0.5 1.27,-1.48 -2.93,-0.22 -3.23,0.97 -1.54,0.31 -3.51,1.81l13.04 4.05c5.96,1.3 9.89,2.51 15.91,2.58 -2.86,-6.64 0.1,-0.59 -5.27,-5.83 -2.11,-2.06 -2.95,-2.61 -3.82,-6.91 -1.69,-8.35 7.53,-48.33 10.71,-53.79 3.08,7.18 2.28,18.98 5.95,25.36 -0.52,11.31 4.94,33.25 6.53,45.5 6.56,-0.99 4.46,0.32 8.56,-6.32 7.31,-11.85 32.64,-49.42 38.73,-55.49l-5.88 30c-2.59,3.99 -2.93,9.09 -3.01,13.44 -2.74,4.22 -3.05,9.09 -2.94,13.53l-1.63 2.8c-4.84,5.87 -7.33,2.29 -13.1,4.29 2.29,2.96 32.14,12 36.77,7.78 -2.63,-1.91 -6.09,-3.46 -8.18,-4.86 -1.25,-11.46 10.52,-57.99 14.02,-69.18l11.37 -1.72 -5.03 -3.5c-0.71,-0.24 -4.95,-1.08 -6.15,-1.33 -4.1,-0.86 -8.99,-1.69 -12.46,-2.59 -6.19,6.68 -29.39,42.42 -38.42,54.31 -6.09,-12.59 -6.75,-55 -13.22,-65.55 -4.04,-1.75 -8.61,-2.31 -13.23,-3.41 -4.68,-1.11 -8.24,-2.78 -12.1,-1.09 2.3,2.9 7.57,5.29 10.26,7.36 0.35,7.26 -7.65,41.8 -10.38,52.57 -0.68,2.68 -1.43,5.29 -2.76,7.84l-3.6 5.39c-0.16,0.23 -0.49,0.71 -0.62,0.89 -0.13,0.18 -0.43,0.58 -0.61,0.9z"/>
  <path class="fil0" d="M531.66 79.96l2.97 7.5c-1.87,4.42 -2.21,3.67 -7.38,5.71l-31.29 11.82c-3.09,-8.27 -10.47,-22.04 -9.4,-31.84 5.97,-3.3 6.46,-2.79 7.49,-6.8 -3.49,0.65 -32.07,11.06 -36.07,14.9 3.19,1.59 4.91,0.49 8,0.68 4.55,0.29 0.94,-0.65 4.16,0.99l3.24 2.61c-0,6.48 -0.2,2.44 1.37,3.29 1.23,9.86 16.33,40.02 19.87,52.28 2.81,9.72 -2.42,8.24 -7.46,13.6 3.48,2.08 4.03,0.99 8.96,-1.04 7.39,-3.03 23.44,-8.71 27.53,-12.1 -7.71,-5.18 -10.75,5.84 -16.92,-9.76 -2.21,-5.59 -6.19,-17.14 -8.61,-21.37 4.17,-3.36 31.92,-14.4 38.61,-15.77 3.21,7.91 10.13,23.25 11.3,31.59 -2.63,3.2 -2.01,1.97 -4.53,4.09 -5.75,4.84 -2.26,-0.85 -4.28,5.08 6.19,-0.69 21.09,-7.69 28.77,-10.49 6.98,-2.55 6.58,-0.5 7.19,-5.98 -11.15,3.11 -12.24,2.37 -15.8,-6.74 -2.81,-7.19 -4.86,-12.1 -7.72,-19.33 -4.04,-10.21 -14,-29.71 -12.78,-40.85 4.42,-2.12 5.35,-2.18 7.95,-5.77 -4.76,-1.05 -11.94,3.2 -17.6,5.46l-15 6.04c-0.34,0.17 -0.73,0.37 -1.05,0.55 -3.27,1.8 -1.59,0.84 -3,1.97 1.83,0.95 0.45,0.62 3.55,0.85 17.38,1.31 5.81,-0.38 17.32,17.96 0.12,0.19 0.39,0.6 0.62,0.88z"/>
  <path class="fil0" d="M221.28 1425.17c-12.67,4.13 -27.1,19.72 -20.41,37.77 15.8,42.61 71.96,18.17 58.65,-16.65 -4.13,-10.81 -20.59,-26.88 -38.24,-21.12z"/>
  <path class="fil0" d="M1567.36 1233.42c-14.53,3.46 -26.95,17.97 -25.2,36.36 1.35,14.14 19.98,29.12 36.64,24.9 12.37,-3.14 26.57,-19.73 24.22,-36.22 -2.14,-15.06 -19.48,-28.89 -35.67,-25.03z"/>
  <path class="fil0" d="M100.9 1273.01c-43.61,17.91 -13.15,70.06 18.69,58.36 42,-15.45 13.16,-71.43 -18.69,-58.36z"/>
  <path class="fil0" d="M53.67 478.4c0.31,0.21 0.83,0.06 0.99,0.5l51.32 10.1c2.63,1.64 -3.56,0.35 3.17,1.41 2.76,0.43 2.08,0.14 4.36,0.05 0.32,0.2 0.85,0.06 1.01,0.5l4.4 1.56c3.01,0.68 3.49,0.62 6.51,0.78 -0.45,-6.08 -5.74,-9.38 -9.43,-14.2 -7.51,-9.81 -29.43,-33.8 -32.17,-39.33l12.34 1.72c-6.42,-5.31 -18.44,-3.5 -25.94,-6.46 -3.87,-1.52 -0.7,0.5 -3.59,-2 7.48,-2.29 72,8.57 79.4,16.5l-47.24 -7.66c1.16,0.49 2.52,1.04 3.53,1.33l20.05 3.92c9.06,1.74 17.93,4.08 27.83,5.02 -1.46,-8.72 -34.67,-44.18 -42.42,-53.27 -7.47,-8.76 -7.17,-17.14 -10.88,-21.86 -3.49,3.56 -12.1,18.05 -13.1,23.37 9.3,-1.88 9.56,-14.07 27.55,8.45 6.74,8.43 15.97,15.2 20.4,24.99l-51.71 -10.35c-8.13,-4.22 -0.22,-5.57 -2.5,-12.14 -4.41,2.85 -17.03,24.01 -18.47,31.27 8.96,-3.58 2.17,-6.16 17.05,-4.5 4.16,1.58 30.61,35.51 32.15,36.74l-50.45 -9.6c-10.31,-3.61 -2.23,-7.17 -5.68,-12.53 -3.79,4.48 -15.05,23.21 -16.88,29.58 6.85,-1.76 3.13,-2.27 8.31,-3.48 3.1,-0.72 6.79,-0.23 10.11,-0.39z"/>
  <path class="fil0" d="M411.66 1626.26c23.14,10.73 44.5,28.62 60.02,-1.35 6.68,-12.88 5.58,-25.46 -3.76,-33.35 -4.59,-3.87 -24.45,-14 -30.83,-15.8l-25.44 50.49z"/>
  <path class="fil0" d="M959.58 1664.66l9.07 55.83c6.01,0.22 30.17,-4.42 35.19,-6.95 9.27,-4.67 15.07,-15.02 12.73,-28.95 -2.03,-12.09 -9.05,-21.76 -19.38,-24.2 -8.76,-2.07 -28.09,2.89 -37.61,4.27z"/>
  <path class="fil0" d="M621.72 1707.09l14.68 2.42c4.6,-9.95 15.14,-30.39 20.92,-37.57l2.62 43.69 14.02 2.71 26.36 -51.07c-4.39,-2.94 -6.49,-2.94 -12.65,-3.4l-17.22 35.24 -2.61 -40.52c-2.66,-0.46 -5.99,-1.38 -7.74,-1.66 -2.03,-0.32 -1.72,-0.38 -3.89,-0.37 -0.44,0 -0.91,0.07 -1.31,0.09 -6.32,0.34 -13.17,21.02 -17.61,27.55 -0.19,0.28 -0.43,0.64 -0.64,0.91l-3.24 3.4 -1.26 -37.85 -11.84 -2.52 1.39 58.94z"/>
  <path class="fil0" d="M108.28 1348.82c1.51,6.15 3.27,8.21 6.81,10.48 6.22,-4.31 26.37,-19.77 32.06,-21.73 -2.57,5.15 -8.57,11.54 -12.47,16.34 -2.59,3.19 -10.25,12.58 -12.35,16.43l7.03 10.01 39.73 -14.66c-5.96,6.17 -25.14,20.1 -32.46,23.37 1.92,7.33 2.15,4.77 5.03,10.43 8.42,-2.39 35.92,-24.77 47.17,-31.48 -2.05,-6.47 -6.41,-11.6 -10.8,-15.99l-36.83 12.2c6,-10.75 16.89,-20.38 23.13,-31.35 -1.76,-4.46 -6.64,-10.61 -10.28,-14.74 -7.98,2.26 -32.45,24.36 -45.78,30.7z"/>
  <path class="fil0" d="M1284.35 156.28c-2.56,-0.35 -2.32,-1.06 -1.66,1.26 -2.75,-0.56 -2.35,-1.21 -1.69,1.44 -2.34,-0.72 -1.58,-0.92 -1.25,1.7 -2.37,-0.39 -1.73,-0.77 -1.28,1.72 -10.5,6.4 -15.84,33.66 -5.31,46.79 1.22,1.52 1.28,1.44 2.19,2.24 -0.38,2.71 -1.14,2.4 1.33,1.89 -0.44,2.48 -0.99,2.05 1.43,1.51 4.04,9.11 26.72,21.31 40.61,20.5 3.84,-4.15 5.37,-7.78 8.7,-11.95 6.03,-7.55 7.75,-4.35 16.85,-2.47 -2.09,-5.98 -26.81,-21.93 -31.44,-22.82 2.13,7.99 5.47,3.07 5.95,13.69l-4.61 7.23c-2.89,-0.88 -2.05,-1.13 -1.3,1.89 -2.57,-0.86 -2,-1.22 -1.36,1.44 -2.74,-0.65 -2.28,-1.24 -1.65,1.46 -47.36,10.45 -30.53,-65.09 7.86,-70.04 18.04,-2.32 22.69,10.14 26.84,17.06l1.12 1.7 0.37 20.77c4.94,-0.93 0.39,2.29 4.87,-3.34 0.63,-0.79 2.45,-3.89 3.52,-5.58 2.87,-4.51 4.88,-6.7 6.75,-11.72l-2.25 -1.19c-11.37,-4.93 -6.47,-0.38 -17.03,-11.49 -4.47,-4.71 -11.63,-11.62 -20.23,-12.75 -4.49,-2.77 -15.65,-2.31 -21.69,-0.7 -3.06,0.82 -5.74,2.1 -8.35,3.52 -4.69,2.56 -5.37,2.74 -7.3,6.21z"/>
  <path class="fil0" d="M422.38 169.59c3.66,5.72 5.27,2.59 8.48,10.58 -3.55,7.22 -3.96,2.51 -5.27,8.9 5.53,-0.67 26,-12.64 30.41,-16.39l-2.55 -0.93c-1.96,-0.51 -2.08,-0.46 -4.01,-0.87 -5.15,-1.11 -1.18,0.76 -5.67,-1.69l-43.56 -35.79c-3.53,-3.11 -14.28,-12.02 -18.05,-14.19 -4.9,2.93 -13.14,9.34 -13.33,15.54 12.93,-2.09 10.4,-0.37 14.65,33.39 6.49,51.55 0.58,27.79 -1.54,45.22 5.58,-1.23 21.12,-8.84 23.79,-13.7 -10.06,-4.47 -15.27,3.88 -17.59,-24.1 7.45,-3.5 15.57,-9.55 23.73,-12.9l10.51 6.93z"/>
  <path class="fil0" d="M864.58 6.22c-0.64,2.66 -1.02,2 1.71,1.34 -0.65,2.66 -1.34,2.33 1.23,1.76 -0.12,21.54 -1.86,43.92 -4.46,64.34 -2.3,-0.38 -1.58,-0.72 -1.36,1.84 -2.11,-0.23 -1.68,-0.74 -1.49,1.3l-1.73 1.23 -8 0.88c2.74,4 -2.04,3.34 14.04,3.83 5.49,0.17 10.1,1.44 16.52,1.42 -1.84,-5.31 0.5,-1.63 -5.39,-5.04 -8.73,-5.05 -8.05,-9.54 -6.87,-22.03 1.15,-12.19 1.72,-28.11 1.99,-40.43l4.56 2.84c-0.6,2.75 -1.39,2.56 1.17,1.74 0.85,2.6 -0.6,0.34 1.37,3.23 2.22,3.26 1.55,1.99 2.95,2.97l3.22 4.17c1.41,4.41 4.46,8.13 8.12,11.51 0.16,0.15 0.53,0.49 0.83,0.69 1.15,4.4 -0.06,2.46 3.23,4.18 -0.49,2.82 -1.34,2.66 1.21,1.84 -0.65,2.83 -1.39,2.47 1.32,1.89 0.4,5.01 -0.19,1.63 1.9,2.34 -0.55,2.69 -1.3,2.46 1.21,1.74 0.72,3.21 -1.48,-0.15 0.7,2.4 2.19,2.55 0.02,0.7 2.57,1.92 -0.75,3.06 -1.68,2.91 1.18,1.98l14.62 21.15c3.29,4.6 1.43,4.15 6.57,5.97 9.3,-18.79 -2.87,-68.91 11.53,-77.36 6.66,-3.91 6.15,-0.57 8.1,-5.7 -8.65,-0.01 -25.24,-4.37 -31.33,0.14l8.58 3.16c-0.52,2.39 -0.76,1.64 1.8,1.04 -0.63,2.96 -1.35,2.6 1.48,1.77 2.29,15.58 0.92,36.31 -0.83,53.21l-43.47 -58.53c-6.12,-8.31 -15.8,-6.42 -28.27,-6.94 1.84,3.69 4.1,4.28 9.47,6.22z"/>
  <path class="fil0" d="M267.87 268.78l2.96 1.44c0.91,1.63 -3.02,1.49 3.15,1.42 0.79,1.74 -3.15,1.68 3.06,1.39 1.09,1.17 -0.48,0.89 2.4,2.12 3.56,1.51 0.62,0.37 3.74,0.8 0.71,2.02 -2.62,1.6 2.47,1.78 -0.66,2.85 -1.14,2.23 1.75,1.53 -0.29,8.35 -3.51,6.78 -3.33,10.38 3.57,1.11 15.81,-11.63 20.61,-15.89 4.26,-3.78 4.85,-2.48 4.55,-7.39 -14.51,0.96 -9.67,2.77 -23,-3.94 -6.64,-3.34 -13,-6.15 -20.4,-9.7 -9.7,-4.64 -32.78,-17.4 -41.82,-18.87 -1.77,2.44 -6.19,9.23 -7.9,13.19 -3.08,7.11 3.94,2.24 9.5,2.52 5.1,9.82 9.86,23.71 14.33,35.06 3.26,8.29 9.4,20.78 9.18,28.99 -0.08,3.04 -0.58,3.68 -0.74,5.67 -0.34,4.28 -1.29,3.41 0.69,4.71 0.05,0.01 18.52,-12.59 17.96,-18.52 -15.89,0.81 -10.83,5.62 -22.26,-18.17 4.49,-5.08 16.84,-17.9 23.09,-18.54z"/>
  <path class="fil0" d="M1206.47 87.02c2.14,13.91 0.58,12.42 -10.84,34.48l-17.12 29.42c-0.15,0.15 -0.51,0.49 -0.75,0.75l-11.65 -0.75c0.39,5.53 21.05,14.28 26.89,16.18 -1.67,-9.62 -8.11,-4.78 -6.57,-16.76 0.67,-5.22 5.12,-13.14 7.22,-17.36 4.73,-9.54 11.85,-22.49 15.09,-31.27l3.51 3.58c-0.12,3.83 -0.3,2.96 0.51,6.98 0.16,0.79 0.79,2.8 1.05,3.47 2.14,5.4 0.33,1.22 1.56,2.94 -0.21,3.86 -1.15,-0.86 -0.05,3.01 0.71,2.5 1.05,2.49 1.5,3.09 -0.11,3.52 -0.28,3.32 0.48,6.98 0.05,0.25 0.94,3.11 1.06,3.42 1.26,3.18 1.15,2.35 1.47,2.82 0.08,3.22 -0.12,3.75 0.72,7.15 1,4.08 -0.74,-1.57 0.73,2.22 1.21,3.14 1.3,2.46 1.51,2.8 -0.05,3.5 -0.97,-0.51 0.07,2.99 0.69,2.33 1.16,2.62 1.48,3.07 -0.17,4.08 -1.23,-1.37 -0.02,2.94 0.65,2.29 1.1,2.58 1.45,3.08 -0.16,4.81 2.94,24.11 7.53,28.1 5.39,-4.16 25.07,-49.46 30.05,-58.08 4.34,-7.5 8.19,-10.64 18.93,-7.99 -0.32,-5.42 -6.74,-6.5 -12.18,-9.43 -5.25,-2.82 -9.33,-6.49 -15.28,-6.1 0.88,2.87 0.78,3.71 7,7.01 1.47,17.33 -13.57,37.73 -19.73,52.3 -5.3,-8.82 -16.24,-72.42 -19.81,-77.23 -2.27,-3.05 -17.87,-10.2 -21.51,-10.65 0.28,3.33 -0.48,1.31 1.42,3.75l4.29 3.1z"/>
  <path class="fil0" d="M1096.8 115.67c-0.93,0.21 -13.8,4.12 -14.56,4.55 2.32,4.05 5.94,3.99 11.56,6.07 5.52,2.04 8,3.56 13.73,4.63 -2,-7.65 -1.61,-1.41 -3.97,-7.13 -1.68,-4.08 -1.45,-6.17 0.21,-10.03 1.54,-3.58 9.05,-10.91 11.09,-12.53l25.35 9.48c0.02,5.3 0.61,15.46 0.11,20.11 -1.14,10.6 -4.12,4.17 -11.75,7.02 3.32,4.17 27.75,12.43 32.99,13.12 -3.88,-8.88 -5.83,-3.35 -6.57,-18.28 -0.4,-8.14 -0.44,-16.31 -0.62,-24.46l-0.53 -42.03c-1.26,-13.6 -20.24,-7.47 -20.58,-7.3 4.63,9.34 14.63,1.99 -11.9,28.89 -5.29,5.36 -7.48,8.26 -12.01,13.43 -2.02,2.31 -4.27,4.37 -6.65,6.8l-4.26 4.81c-1.88,2.68 -0.44,-0.22 -1.64,2.84z"/>
  <path class="fil0" d="M773.15 72.39c-1.88,0.66 -1.51,-2.94 -1.76,2.52 -2.93,-0.85 -2.29,-1.26 -1.43,1.7 -2.79,-0.93 -2.17,-1.3 -1.41,1.57 -3.01,-0.78 -2.6,-1.33 -1.37,1.53 -6.85,0.43 -3.43,-1.16 -5.9,3.04 4.24,2.7 20.68,2.07 26.42,0 -2.71,-7.49 -15.81,1.11 -4.16,-30.24l27.06 -0.43c1.5,2.06 0.83,1.41 2,3.09l2.58 3.51c0.3,2.53 -0.37,0.89 0.74,3.75 2.54,6.58 0.21,1.32 2.18,3.62 -0.1,6.64 -0.32,2.4 1.47,3.48l0.01 8.67 -8.67 2.39c5.52,4.39 29.15,3.48 34.46,0.66l-1.64 -1.53c-1.2,-0.89 -1.16,-0.8 -2.78,-1.87 -4.87,-3.23 -4.3,-2.41 -8.92,-13.49 -3.03,-7.26 -5.82,-13.94 -8.74,-21.28 -3.04,-7.66 -5.95,-13.98 -8.76,-21.27 -1.45,-3.77 -2.81,-6.91 -4.3,-10.62l-5.63 -11.1c-4.08,0.23 -6.76,0.91 -10.17,2.05l-7.82 4.15 7.4 4.58c0.4,11.45 -18.64,48.01 -20.85,61.51z"/>
  <path class="fil0" d="M528.66 1677.56c3.94,3.38 6.7,3.84 12.43,4.61l7 -21.38c12.54,2.24 12.15,6.96 15.92,19 4.46,14.2 3.47,13.28 18.39,17.03 -6.29,-18.94 -1.8,-8.79 -10.76,-30.05 9.5,-0.09 15.09,-0.9 18.24,-7.53 3.78,-7.94 0.97,-15.53 -3.79,-19.47 -5.09,-4.22 -31.35,-13.25 -39.49,-14.72l-17.95 52.5z"/>
  <path class="fil0" d="M1588.52 425.97l-1.56 2.83c-2.72,-0.54 -2.2,-1.1 -1.64,1.59l-2.46 1.7c-4.81,0.95 0.28,-1.09 -2.58,0.64 -2.18,1.31 -1.54,1.03 -2.47,2.12 -5.85,0.01 -1.97,-0.29 -2.77,1.72 -5.53,-0.26 -2.08,-0.43 -2.76,1.58 -5.36,1.08 0.94,-1.45 -2.5,0.63 -1.88,1.13 -1.78,1.32 -2.43,2.07 -6.01,0.09 -2.05,-0.21 -2.83,1.66 -3.69,0.86 -1.39,-0.2 -4.45,1.55 -5.01,2.87 -1.6,0.84 -3.26,2.76 -5.6,-0.04 -1.89,-0.33 -2.76,1.7 -4.68,0.87 -1.26,-0.37 -5.52,1.97 -0.15,0.08 -2.59,1.8 -2.64,1.84 -1.93,1.54 -1.77,1.62 -2.24,2.11l-5.44 2.28c-0.26,0.17 -0.63,0.51 -0.86,0.67 -0.22,0.17 -0.62,0.59 -0.8,0.73 -0.17,0.14 -0.52,0.5 -0.76,0.76 -5.68,-0.09 -1.89,-0.33 -2.76,1.64 -15.03,1.11 -8.05,-3.87 -16.72,-6.72 2.49,9.65 27,46.81 34.11,62.74 7.3,-0.7 17.23,-1.57 22.58,-4.94 -3,-3.76 -15.47,-6.75 -20.61,-7.7 -1.47,-1.66 -20.81,-17.05 -16.6,-27.19 1.55,-3.74 23.23,-16.27 28.76,-17.71 18.33,21.54 3.56,25.19 3.23,32.73 4.32,-1.31 24.4,-11.61 26.79,-16.26 -10.44,-5.88 -13.34,10.69 -26.82,-19.27 18.6,-9.48 33.35,-26.83 40.79,5.13 2.89,12.44 -2.35,19.6 -0.94,26.77 5.78,-2.26 3.77,-1.63 7.62,-6.98 1.96,-2.72 3.88,-4.66 5.91,-7.08 -3,-8.74 -19.31,-34.13 -25.7,-45.95 -2.07,-3.84 -5.03,-13.32 -10.48,-13.21l3.57 11.09z"/>
  <path class="fil1" d="M778.95 364.91c29.84,0.57 32.36,-3.7 32.31,-33.35 -0.05,-29.04 -2.86,-33.35 -32.06,-32.73l-0.25 66.08z"/>
  <path class="fil1" d="M708.48 299.61c-13.53,4.76 -11.5,22.2 -11.43,37.99 0.07,15.78 2.93,31.62 21.08,27.42 14.14,-3.28 12.18,-22.37 12.11,-37.95 -0.07,-15.82 -3.15,-34 -21.75,-27.46z"/>
  <path class="fil1" d="M905.02 364.9l9.07 0.02 7.91 -44.64 8.5 44.59 9.25 0.06 9.29 -66 -9.39 -0.11 -5.23 49.01 -8.25 -49.06 -7.47 0.01c-2.25,7.23 -3.26,15.02 -4.57,22.51 -0.84,4.8 -2.68,19.04 -5.11,22.76l-4.21 -40.9c-1.38,-6.22 -2.28,-4.51 -9.91,-4.22l6.73 49.23c0.56,4.24 1.29,13.23 3.38,16.74z"/>
  <path class="fil0" d="M1580.6 1181.35c3.85,3.9 19.18,9.89 24.38,12.09 0.75,0.32 3.4,1.42 4.25,1.93 4.15,2.48 2.09,1.21 3.82,2.98l-43.42 7.76 -5.34 11.4 51.73 23.18 4.89 -9.7c-5.35,-5.37 -25.73,-11.21 -32.54,-16.39 39.26,-7.3 44.29,-3.14 48.28,-20.2l-50.89 -22.53 -5.16 9.5z"/>
  <path class="fil0" d="M594.74 103.74c-0.78,2.69 -1.24,2.13 1.52,1.56 -0.64,2.5 -0.96,1.84 1.65,1.26 0.85,1.06 0.31,0.93 2.25,2.28 8.14,5.67 22.76,3.37 31.33,0.16 41.26,-15.45 10.43,-52.06 9.92,-75.88 -0.24,-11.27 4.83,-7.46 7.33,-15.52 -10.11,1.24 -22.29,5.16 -29.06,8.62 11.19,9.42 11.63,-12.18 24.52,32.52 5.01,17.39 10.64,33.95 -6.5,42.95 -15.77,8.28 -30.12,5.17 -35.92,-15.52 -3.16,-11.29 -11.93,-36.17 -11.63,-47.45 3.17,-1.78 6.35,-2.59 8.86,-5.45 -4.11,-2.36 -35.19,6.75 -38.29,10.49 11.42,6.61 9.03,-15.36 20.52,23.95l11.11 33.9c1.93,2.34 0.54,0.91 2.4,2.12z"/>
  <path class="fil0" d="M161.47 336.24c-0.72,2.47 -0.85,1.56 1.97,1.1 1.1,1.2 -0.09,0.78 2.35,2.01 2.44,1.23 1.57,1.06 4.81,1.45 4.74,0.57 7.51,0.04 10.21,-1.72 6.65,-0 2.39,0.28 3.56,-1.43l2.49 -1.64 4.23 -3.25c2.51,0.27 2.2,0.97 1.74,-1.31 2.61,0.37 2.36,1.13 1.8,-1.22 2.65,0.46 2.26,1.12 1.77,-1.4l2.13 -1.97c2.86,0.42 2.59,1.22 1.88,-1.38 2.81,0.55 2.59,1.41 2.01,-1.12 5.15,-0.32 1.69,0.25 2.42,-1.93 6.05,0.24 2.31,0.38 3.03,-1.45 13.65,-0.19 9.77,0.63 18.54,4.18 -0.34,2.37 -0.94,1.98 1.32,1.61 -0.31,2.65 -1.09,2.36 1.25,1.91 3.49,43.23 -38.69,21.58 -45.97,25.71 2.12,3.24 17.85,16.78 22,19.28 0.22,-0.28 0.5,-1.12 0.57,-0.91 0.41,1.19 1.31,-5.7 5.3,-9.79 5.83,-5.99 22.59,-7.66 23.24,-28.38 0.64,-20.23 -19.63,-34.47 -38.45,-22.87 -8.41,5.18 -31.63,30.29 -40.26,9.4 -4.27,-10.34 2.91,-18.64 9.92,-21.67 12.96,-5.61 22.03,1.29 29.12,-2.01 -2.34,-4.61 -3.93,-4.11 -8.95,-7.76 -4.16,-3.02 -6.26,-4.96 -10.17,-7.06 -3.88,4.22 -4.52,6.96 -9.49,11.34 -4.41,3.89 -8.06,6.38 -11.25,11.17 -6.97,10.48 -3.45,27.11 6.86,31.11z"/>
  <path class="fil0" d="M1631.76 1118.7l-8.86 25.32 9.29 3.36c1.38,-5 2.76,-10.6 5.82,-13.46 5.62,2.15 6.11,0.79 6.52,8.46 0.28,5.29 -1.28,10.41 -3.41,13.76 -8.61,13.52 -37.24,8.35 -36.07,-12.04 0.69,-11.9 6.46,-13.29 14.68,-16.58l1.64 -12.01c-31.69,-0.56 -39.16,55.79 -0.9,60.89 33.24,4.44 38.98,-39.89 33.02,-49.44 -2.62,-4.19 -16.08,-7.38 -21.75,-8.25z"/>
  <path class="fil0" d="M151.98 1410.8l7.86 8.74 16.7 -13.58c3.9,5.49 10.45,14.15 16.21,17.12 12.99,6.69 39.22,-3.83 17.95,-31.42 -4.39,-5.69 -11.04,-13.13 -16.17,-17.97 -5.17,2.14 -39.45,32.56 -42.55,37.12z"/>
  <path class="fil0" d="M462.82 1653.07l11.94 4.82 8.58 -9.27c7.64,0.87 17.97,5.44 25.32,8.66l0.75 14.29 12.19 4.02 -2.95 -62.44 -14.59 -4.33 -41.23 44.25z"/>
  <path class="fil0" d="M301.12 187.31c-0.55,2.95 -1.41,2.72 1.28,1.96 0.87,3.24 -1.28,-0.28 0.74,2.25 1.8,2.26 0.45,0.87 2.37,2.06 0.86,3.52 1.09,3.65 2.87,6.16 0.17,0.24 1.97,2.29 2.09,2.41 1.75,1.75 1.05,1.11 2.42,2.02 0.81,2.41 -0.53,0.42 1.34,3.21 3.24,4.83 0.63,1.39 2.96,3.06 0.78,2.85 -1.49,-0.51 0.75,2.22 1.81,2.2 0.54,0.9 2.44,2.07 1.01,3.53 -1.37,-0.45 0.77,2.2 1.68,2.08 0.68,0.99 2.36,2.07 -0.52,2.91 -1.4,2.7 1.24,1.97 1.47,5.83 1.74,3.51 3.07,4.46 1.63,5.89 1.75,3.3 3.13,4.17 0.97,4.02 -1.56,-0.48 0.7,2.27 1.89,2.31 0.4,0.84 2.47,2.04 3.21,17.33 -2.38,8.03 -5.02,18.6 3.86,-1.15 31.23,-18.64 33.74,-25.11 -16.83,3.44 -9.71,10.17 -30.77,-19.91 -7.78,-11.11 -18.02,-23.18 -24.18,-34.81l7.09 -5.48c13.64,-7 21.2,2.53 28.89,-0.98 -3.27,-4.17 -12.11,-10.32 -13.63,-13.52 -10.22,5.36 -20.45,14.03 -30.36,20.49 -10.54,6.87 -20.21,15.46 -30.43,21.45 1.47,5.44 5.13,15.45 8.81,18.24 6.07,-11.52 0.29,-24.38 16.68,-31.28l6.16 5.7z"/>
  <path class="fil0" d="M877.48 1730.48l13.54 -0.85 4.43 -13.21 24.55 -1.74 7.18 12.18c18.62,0.34 13.8,0.49 1.56,-23.52 -4.64,-9.1 -12.54,-24.95 -17.72,-31.62l-13.32 -0.03 -20.22 58.78z"/>
  <path class="fil0" d="M351.79 1588.87c3.23,4.25 4.93,5.03 10.62,7.69 5.07,-2.56 6.68,-5.33 11.99,-7.08l20.82 12.97 -1.81 13.65c3.38,2.78 7.5,6.34 11.63,6.72l9.01 -61.41c-12.35,-4.79 -6.07,-12.07 -31.02,6.42 -5.79,4.29 -10.12,6.64 -15.23,10.23 -5.75,4.05 -10.21,7.84 -16.01,10.81z"/>
  <path class="fil0" d="M1520.31 1397.9l6.52 -10.93 -6.56 -10.72 13.56 -20.97 14.61 2.8c2.18,-3.61 4.6,-6.45 6.96,-10.23 -1.08,-0.75 0.42,-0.25 -2.92,-1.49l-56.88 -11.79c-12.63,12.11 -6.57,14.27 13.63,47.59 3.26,5.37 5.94,12.04 11.08,15.74z"/>
  <path class="fil0" d="M1140.63 1614.39l-1.82 61.63 12.85 -4.87 0.13 -13.03c6.15,-4.53 16.63,-8.32 25.23,-9.7l8.13 9.37c2.36,-0.78 4.32,-1.21 6.56,-2.19 4.71,-2.05 2.9,-0.74 5.61,-3.9l-43.32 -41.83 -13.37 4.51z"/>
  <path class="fil0" d="M704.17 42.15l4.31 43.41c-0.28,0.21 -0.72,0.2 -0.85,0.64 -0.75,2.48 0.1,0.15 -1.78,1.2 -10.53,5.87 -6.58,-0.21 -9.16,6.16 10.35,-0.55 33.47,-1.93 40.27,-6.31l-11.98 -2.95c-1.49,-3.87 -11.05,-58.82 -10.35,-67.45 0,-0.01 -3.16,-10.89 21.23,-3.06l2.57 1.5c-0.26,2.4 -0.68,1.72 1.9,1.34 2.02,3.89 2.26,5.03 7.31,6.52 2.19,-4.58 -1.78,-10.38 -4.47,-18.39l-72.83 9.66c-2.65,12.71 -2.79,15.29 -0.64,19.26 9.66,-4.64 7.16,-18.21 29.59,-19.48l4.89 27.95z"/>
  <path class="fil0" d="M1313.35 1519.05c2.55,9.57 4.83,19.23 7.41,29.19 1.14,4.42 2.34,9.2 3.63,14.33l2.71 10.72c0.6,1.65 0.03,0.19 0.96,2.27 0.15,0.33 0.44,0.83 0.57,1.1 0.13,0.26 0.37,0.74 0.59,1.09 4.28,-2.56 5.44,-4.04 9.73,-6.1l-3.3 -16.04c7.58,-3.79 13.95,-10.97 20.55,-13.89 4.31,2.12 7.05,4.57 11.99,5.85l9.44 -7.85c-6.12,-5.19 -24.55,-13.72 -33.02,-18.41 -16.1,-8.91 -19.68,-15.97 -31.26,-2.24z"/>
  <path class="fil0" d="M1399.65 1444.85l20.35 58.48 9.95 -8.23 -4.75 -13.78c6.32,-5.15 11.81,-10.68 17.65,-16.58l13.63 5.03c4.8,-3.08 7.29,-4.73 9.54,-9.73 -16.18,-5.68 -38.93,-17.36 -50.91,-21.52 -8.3,-2.88 -11.23,2.52 -15.47,6.33z"/>
  <path class="fil0" d="M239.76 1503.93c3.42,2.83 5.28,5.37 10.43,7.35 0.82,-1.28 6.68,-9.49 7.6,-10.26 3.93,-3.3 9.62,-2.55 16.32,-2.57l-3.85 32.71 12.22 9.16 3.95 -42.03 30.98 -1.47c-12.11,-18.11 -22.37,-8.39 -46.06,-9.56 3.38,-7.59 11.11,-11.36 14.6,-19.59l-9.04 -6.68c-4.96,4.06 -34.73,37.98 -37.17,42.94z"/>
  <polygon class="fil0" points="772.37,1730.31 785.11,1730.75 791.24,1718.15 816.37,1718.45 822.04,1731.42 835.09,1731.66 811.81,1674.84 798.6,1674.38 "/>
  <path class="fil0" d="M1218.43 1605.52l-11.53 -20.88 -10.78 5.67c5.74,15.44 21.47,34.49 26.2,49.13 5.74,-1.14 8.39,-3.25 12.18,-5.56 -1.47,-3.33 -5.7,-9.91 -6.57,-12.59 -1.86,-5.74 0.54,-11.4 4.18,-15.4 17.64,10.91 28.6,19.58 40.48,5.59l-37.7 -17.23 9.18 -30.09c-27.75,8.77 -11.57,22.42 -25.66,41.36z"/>
  <path class="fil0" d="M-0 1125.54c0.67,5.36 1.51,7.73 4.16,11.6 13.05,-2.18 16.91,-7.61 27.02,2.36 -3.33,6.87 -7.78,11.11 -12.94,17.09 -5.78,6.7 -7.16,11.17 -0.59,21.81 6.31,-4.02 15.21,-22.92 25.48,-32.6l27.76 14.43c-4.86,-12.98 -0.28,-13.55 -13.43,-20.12 -7.41,-3.7 -17.73,-8.06 -22.95,-12.35l22.75 -7.69 -3.46 -11.96 -53.8 17.45z"/>
  <path class="fil0" d="M756.05 1710.59l-1.83 6.51c-12.64,3.53 -20.52,2.9 -23.87,-9.82l-12.69 0.06c2.19,24.93 38.5,27.23 48.12,13.96 7.46,-10.29 1.81,-20.67 -7.05,-24.79 -16.67,-7.75 -23.93,-3.75 -24.26,-14.42 3.54,-2.09 6.7,-3.51 12.67,-2.54 7.42,1.2 6.91,3.71 8.86,8.71l12.62 0.36c-0.72,-23.58 -37.17,-22.71 -44.3,-11.83 -14.59,22.25 24.37,24.74 31.72,33.82z"/>
  <path class="fil0" d="M1117.54 1665.77c0.07,7.46 -4.1,10.87 -11.06,12.42 -8.05,1.79 -11.85,-2.58 -15.58,-6.04l-10.4 4.07c6.92,23.39 41.62,9.51 47.15,0.73 6.42,-10.19 0.71,-21.94 -8.24,-24.82 -9.77,-3.15 -23.64,2.36 -32.41,-2.03 -0.55,-6.41 5.36,-10.91 12.81,-10.41 12.23,0.83 0.1,7.02 20.09,1.06 -5.15,-21.09 -40.27,-9.64 -44.52,3.49 -3.57,11.04 3.35,17.85 13.06,19.27 12.26,1.78 19.36,-3.98 29.1,2.27z"/>
  <path class="fil0" d="M325.98 1549.05c-3.66,-2.25 -6.2,-4.49 -11.59,-5.41 -2.61,14.45 -1.33,20.23 7.73,27.37 6.01,4.74 16.83,12.8 28.56,7.9 23.99,-10.03 -5.5,-36.54 -7.81,-40.93 -7.09,-13.52 13.33,-8.19 15.74,0.98 1.89,7.21 -1.52,10.83 11.43,13.52 8.66,-33.09 -46.51,-46.59 -40.97,-15.88 1.7,9.44 20.25,22.41 17.13,29.01 -3.4,7.2 -23.86,3 -20.2,-16.57z"/>
  <path class="fil0" d="M1525.63 354.13c-0.28,0.21 -0.78,0.12 -0.86,0.6 -0.09,0.48 -0.66,0.54 -0.76,0.72 -1.2,2.08 -0.62,0.56 -1.32,3.32 -1.88,0.7 -1.42,-2.62 -1.7,2.62 -0.85,0.71 -0.88,0.65 -2.24,2.29 -0.4,0.49 -1.54,1.99 -1.93,2.58 -1.84,2.79 -2.47,3.64 -3.3,7.17 -0.28,0.22 -0.66,0.27 -0.76,0.75 -0.01,0.05 -8.23,10.03 -9.5,16.01 -1.29,0.97 -0.94,-0.33 -2.98,3.02 -1.85,3.04 -0.64,0.06 -1.59,4.25 -0.3,0.22 -0.83,0.11 -0.92,0.62 -0.09,0.5 -0.7,0.55 -0.8,0.75 -1.23,2.2 -0.64,0.49 -1.27,3.46 -1.86,0.63 -1.42,-2.67 -1.7,2.53 -0.27,0.23 -0.76,0.17 -0.84,0.65 -0.08,0.48 -0.64,0.57 -0.74,0.75 -1.27,2.3 -0.54,0.32 -1.24,3.25 -2.11,0.87 -1.75,-2.9 -1.78,2.66 -2.71,2.15 -2.01,0.59 -2.79,4.86 8.66,4.06 67.59,-17.91 82.01,-15.87 6.01,0.85 6.57,3.47 9.42,2.45l-3.04 -7.4c-16.55,-23.38 -11.7,-14.28 -11.93,-3.26 -9.76,6.36 -12.3,7.05 -26.77,10.71 -8.98,2.27 -21.85,6.2 -29.7,6.86 10.53,-15.32 21.35,-37.4 31.83,-50.57 9.32,0.11 8.89,5.45 11.11,3.11 2.13,-2.24 -9.02,-14.7 -12.21,-19.24 -8.09,-11.51 -3.68,-7.75 -8.46,-9.01 1.79,17.66 -0.88,7.64 -3.24,19.35z"/>
  <path class="fil0" d="M1496.46 1400.86c1.78,7.21 -0.5,12.78 -4.78,16.51 -5.76,5.03 -8.97,2.92 -17,2.44 -2.71,4.66 -3.86,4.28 -4.9,10.37 30.91,10.33 41.78,-22.85 38.7,-32.11 -3.15,-9.46 -14.27,-13.32 -24.51,-7.91 -7.69,4.07 -16.12,13.58 -24.55,11.89 -1.54,-6.75 3.11,-14.03 8.65,-15.81 3.93,-1.26 3.58,-0 6.86,-0.39 4.54,-0.54 7.61,-5.26 9.27,-10.01 -11.35,-3.87 -18.35,-2.42 -25.99,5.06 -21.83,21.39 -5.04,40.81 13.36,31.44 7.89,-4.02 14.85,-13.49 24.89,-11.47z"/>
  <path class="fil0" d="M1017.03 1655.13l14.52 53.46 46.39 -12.3 -2.37 -9.23 -34.19 9.38 -3.78 -15.03c6.88,-1.83 25.33,-6.05 30.18,-9.46l-2.31 -7.85 -31.05 8.14 -3.02 -12.35 32.41 -8.89 -1.91 -8.78c-8.42,0.62 -38.95,9.03 -44.89,12.91z"/>
  <path class="fil0" d="M21.8 1189.89c1.56,7.13 16.4,37.83 19.86,43.61 4.73,-1.55 4.2,-0.89 7.82,-4.07l-13.84 -31.31 13.29 -6.43c6.69,9.43 8.74,19.66 14.29,28.15l8.01 -4.02 -12.96 -28.5 11.31 -5.26 15.54 30.17 6.39 -2.4c-0.31,-8.19 -14.48,-34.31 -18.12,-43.35l-51.57 23.41z"/>
  <path class="fil1" d="M857.69 364.96l8.94 0.24c2.52,-9.73 -1.09,-19 2.43,-24.7 3.8,1.62 1.66,-3.17 6.54,11.46 4.85,14.56 2.41,13.07 14.62,12.95 -15.25,-40.43 -6.83,-17.56 -2.27,-36.82 1.44,-6.07 1.55,-13.65 -0.48,-19.53 -3.54,-10.24 -16.85,-11.15 -29.67,-9.25l-0.09 65.66z"/>
  <path class="fil0" d="M1281.23 1540.7c4.08,8.39 9.14,15.07 13.96,22.57 4.91,7.65 12.26,18.15 1.22,24.63 -11.86,6.96 -16.67,-1.99 -21.7,-10.11 -4.67,-7.54 -11.05,-16.3 -13.95,-23.32l-11.25 5.52c2.62,8.76 13.23,23.43 19.06,31.36 9.3,12.65 17.84,14.81 34.2,4.27 11.52,-7.42 16.08,-16.65 7.94,-31.41 -3.61,-6.55 -15.25,-25.37 -19.42,-29.96l-10.05 6.44z"/>
  <path class="fil1" d="M660.91 364.48l10.15 0.48 0.14 -20.11c16.54,-1.21 21.81,-10.43 20.1,-28.36 -1.6,-16.66 -13.1,-18.89 -30.24,-17.47l-0.14 65.47z"/>
  <path class="fil0" d="M122.83 358.36c0.57,2.11 -3.15,1.87 2.78,1.78 0.83,1.44 -1.14,1.52 4.09,3.3 -0.4,2.3 -0.72,1.64 1.72,1.11 -0.64,2.68 -0.98,1.94 1.86,1.37 1.04,1.88 -0.18,0.79 1.85,2.58 2.54,2.23 0.42,0.85 3.72,2.21 -0.76,2.59 -0.96,1.76 1.86,1.21 1.09,2.03 -0.29,0.8 1.85,2.62 2.84,2.42 -0.03,0.74 3.83,2.1 -0.66,2.64 -0.96,1.89 1.82,1.25 1.23,2.3 -0.45,0.61 1.87,2.63 2.4,2.09 0.68,0.95 3.74,2.16 -0.85,2.71 -1.05,1.86 1.89,1.28 1.84,4.16 -0.68,2.73 5.79,4.7 -0.82,2.56 -1.05,1.82 1.68,1.23 2.69,4.68 7.64,5.87 10.03,9.59 4.53,7.05 -1.7,9.23 -1.47,12.95 0.24,0.11 0.7,-0.11 0.78,0.14 1.5,4.51 -1.28,3.7 4.44,-2.43l16.19 -20.11c1.9,-2.39 4.58,-4.48 2.83,-6.22 -2.54,-2.51 -3.43,1.34 -6.19,2.94 -8.91,5.15 -26.13,-14.73 -41.69,-26.69 -10.32,-7.93 -17.67,-10.75 -15.98,-18.96 1.05,-5.12 3.36,-4.37 0.61,-7.78 -3.73,4.01 -21.96,26.07 -23.07,30.71 8.39,-0.27 2.13,-4.18 13.17,-5.68z"/>
  <path class="fil1" d="M815.33 364.9l8.75 0.02c2.65,-4.22 2.09,-6.04 3.62,-11.77 15.62,-0.23 10.41,-0.44 13.56,11.75l9.65 -0.03 -11.95 -66.07 -11.31 0.08 -12.33 66.02z"/>
  <path class="fil1" d="M739.81 364.87l9.94 0.15 0.07 -30.11 12.62 29.97 9.79 0.06c-1.8,-10.44 -11.6,-26.01 -12.34,-33.65 -0.57,-5.91 9.31,-24.61 11.37,-32.33l-8.63 -0.12c-4.85,6.86 -6.54,17.45 -10.87,23.86l-1.84 -23.28 -9.76 -0.78 -0.33 66.23z"/>
  <path class="fil1" d="M995.07 357.07l-9.15 0.51 -2.57 -13.01 -6.94 -0.32c-9.44,31.16 40.89,26.8 27.79,-2.36 -2.74,-6.09 -31.38,-34.83 -13.82,-35.18 7.08,-0.14 6.35,7.44 6.86,13.62l7.52 0.35c5.76,-30.71 -27.87,-26.31 -29.31,-8.48 -1.61,19.86 25.81,26.57 19.62,44.87z"/>
  <path class="fil0" d="M1506.35 1319.78l6.99 4.28c4.53,-4.56 7.56,-10.81 10.46,-14.89 13.13,6.85 26.31,16.85 39.25,24.55l7.4 -9.62c-3.24,-3.31 -34.8,-23.6 -39.11,-25.35l9.64 -16.84c-4.25,-2.78 -3.59,-2.9 -7.92,-4.22 -4.44,4.83 -24.47,36.12 -26.73,42.09z"/>
  <polygon class="fil0" points="830.5,1683.64 849.3,1683.9 850.53,1730.61 862.7,1731.27 862.58,1683.56 880.74,1683.4 881.17,1673.86 830.47,1674.91 "/>
  <path class="fil0" d="M46.45 1244.29c2.95,6.97 16.3,34.73 20.67,39.04l7.76 -3.87c-3.28,-9.26 -9.89,-17.67 -13.58,-27.54 5.15,-5.84 31.8,-15.76 40.19,-22.48l-4.64 -10.43c-5.07,0.94 -46.17,22.36 -50.4,25.29z"/>
  <path class="fil0" d="M1347.84 1492.66c11.91,12.84 23.6,30.14 36.84,41.92 11.05,-6.72 21.88,-20.03 33.22,-27.27l-4.9 -7.92c-9.4,3.97 -15.78,14.96 -26.08,19.65 -8.87,-11.5 -19.9,-23.21 -28.99,-34.62 -3.67,1.97 -7.29,5.66 -10.09,8.24z"/>
  <path class="fil0" d="M695.96 1721.88l11.5 1.02c1.59,-8.18 7.55,-50.27 6.39,-56.45l-11.76 -1.42c-1.35,10.34 -7.54,49.31 -6.13,56.85z"/>
  <polygon class="fil1" points="956.07,364.74 966.33,364.94 966.32,298.97 956.32,298.83 "/>
  <path class="fil0" d="M717.94 357.44c2.91,-8.62 3.13,-41.92 -0.2,-50.06 -11.93,-2.3 -10.05,4.67 -10.12,24.18 -0.07,19.6 -2.34,28.86 10.32,25.88z"/>
  <path class="fil0" d="M789.04 357.73c13.52,-0.48 11.63,-6.7 11.7,-20.16 0.05,-9.78 0.24,-20.7 -1.66,-29.27l-9.62 -2.4 -0.41 51.83z"/>
  <path class="fil0" d="M671.2 337.5c9.4,-1.38 9.92,-4.26 10.17,-14.94 0.25,-10.89 0.05,-14.83 -9.92,-16.27l-0.25 31.2z"/>
  <path class="fil0" d="M867.49 332.96c7.39,-0.08 9.97,-1.07 11.28,-8.15 1.32,-7.16 -0.07,-12.3 -2.32,-17.03l-8.58 -1.67 -0.38 26.85z"/>
  <path class="fil0" d="M829.11 345.92l8.28 0.22 -3.42 -30.92c-2.21,4.04 -5.43,25.77 -4.86,30.7z"/>
 </g>
</svg>
